<svg width="40" height="40" viewBox="0 0 40 40" fill="none" xmlns="http://www.w3.org/2000/svg">
<path d="M18.082 29.5835H21.9154V18.0835H18.082V29.5835ZM19.9987 14.2502C20.5418 14.2502 20.9973 14.0662 21.3653 13.6982C21.7333 13.3302 21.9166 12.8753 21.9154 12.3335C21.9141 11.7917 21.7301 11.3368 21.3634 10.9688C20.9966 10.6008 20.5418 10.4168 19.9987 10.4168C19.4556 10.4168 19.0008 10.6008 18.634 10.9688C18.2673 11.3368 18.0833 11.7917 18.082 12.3335C18.0808 12.8753 18.2648 13.3308 18.634 13.7001C19.0033 14.0694 19.4582 14.2527 19.9987 14.2502ZM19.9987 39.1668C17.3473 39.1668 14.8556 38.6634 12.5237 37.6565C10.1918 36.6496 8.16328 35.2843 6.43828 33.5606C4.71328 31.8369 3.34798 29.8084 2.34237 27.4752C1.33676 25.1419 0.833311 22.6503 0.832034 20.0002C0.830756 17.3501 1.3342 14.8584 2.34237 12.5252C3.35053 10.1919 4.71584 8.16347 6.43828 6.43975C8.16073 4.71602 10.1892 3.35072 12.5237 2.34383C14.8582 1.33694 17.3499 0.833496 19.9987 0.833496C22.6475 0.833496 25.1392 1.33694 27.4737 2.34383C29.8082 3.35072 31.8367 4.71602 33.5591 6.43975C35.2816 8.16347 36.6475 10.1919 37.6569 12.5252C38.6664 14.8584 39.1692 17.3501 39.1654 20.0002C39.1615 22.6503 38.6581 25.1419 37.655 27.4752C36.652 29.8084 35.2867 31.8369 33.5591 33.5606C31.8316 35.2843 29.8031 36.6502 27.4737 37.6584C25.1443 38.6666 22.6526 39.1694 19.9987 39.1668ZM19.9987 35.3335C24.2793 35.3335 27.9049 33.8481 30.8758 30.8772C33.8466 27.9064 35.332 24.2807 35.332 20.0002C35.332 15.7196 33.8466 12.0939 30.8758 9.12308C27.9049 6.15225 24.2793 4.66683 19.9987 4.66683C15.7181 4.66683 12.0925 6.15225 9.12162 9.12308C6.15078 12.0939 4.66537 15.7196 4.66537 20.0002C4.66537 24.2807 6.15078 27.9064 9.12162 30.8772C12.0925 33.8481 15.7181 35.3335 19.9987 35.3335Z" fill="white"/>
</svg>
