<svg width="84" height="97" viewBox="0 0 84 97" fill="none" xmlns="http://www.w3.org/2000/svg">
<path fill-rule="evenodd" clip-rule="evenodd" d="M48.5 62.3571C48.5 58.5306 45.398 55.4286 41.5714 55.4286C37.7449 55.4286 34.6429 58.5306 34.6429 62.3571C34.6429 64.3425 35.4779 66.1328 36.8159 67.396C34.6429 73.5479 34.6429 83.1429 34.6429 83.1429H48.5C48.5 83.1429 48.5 73.5479 46.327 67.396C47.665 66.1328 48.5 64.3425 48.5 62.3571ZM55.4286 27.7143C55.4286 20.0612 49.2245 13.8571 41.5714 13.8571C33.9183 13.8571 27.7143 20.0612 27.7143 27.7143C27.7143 30.2383 28.3891 32.6046 29.5681 34.6429H14.7303C14.1603 32.4284 13.8571 30.1067 13.8571 27.7143C13.8571 12.4081 26.2652 0 41.5714 0C56.8776 0 69.2857 12.4081 69.2857 27.7143C69.2857 30.1067 68.9826 32.4284 68.4126 34.6429H53.5747C54.7538 32.6046 55.4286 30.2383 55.4286 27.7143ZM13.8571 41.5714H17.5648H38.7015H41.5715H65.578H69.2857H76.2149C80.0415 41.5714 83.1429 44.6736 83.1429 48.5004V83.1426C83.1429 90.7963 76.9385 97 69.2851 97H13.8577C6.20249 97 0 90.7958 0 83.1426V48.5004C0 44.6753 3.10174 41.5714 6.92792 41.5714H13.8571Z" fill="#313A5A"/>
</svg>
