<svg width="116" height="95" viewBox="0 0 116 95" fill="none" xmlns="http://www.w3.org/2000/svg">
<path d="M0.429688 94.913V63.5504C0.429688 55.5722 1.24166 48.0067 2.86562 40.8538C4.48957 33.701 7.19616 26.8232 10.9854 20.2206C15.0453 13.3428 20.3231 6.60264 26.8189 0L43.4644 13.6179C38.5926 18.845 34.668 23.9346 31.6908 28.8866C28.9842 33.5634 26.9543 38.2403 25.601 42.9172C24.5183 47.594 23.977 52.2709 23.977 56.9478L13.8273 49.1071H45.4944V94.913H0.429688ZM70.2597 94.913V63.5504C70.2597 55.5722 71.0716 48.0067 72.6956 40.8538C74.3195 33.701 77.0261 26.8232 80.8154 20.2206C84.8752 13.3428 90.1531 6.60264 96.6489 0L113.294 13.6179C108.423 18.845 104.498 23.9346 101.521 28.8866C98.8142 33.5634 96.7842 38.2403 95.4309 42.9172C94.3483 47.594 93.807 52.2709 93.807 56.9478L83.6573 49.1071H115.324V94.913H70.2597Z" fill="#1EDB84"/>
</svg>
