<svg width="29" height="23" viewBox="0 0 29 23" fill="none" xmlns="http://www.w3.org/2000/svg">
<path d="M28.8311 2.69279C27.7901 3.14946 26.6808 3.45216 25.5242 3.59913C26.714 2.88876 27.6221 1.77245 28.049 0.426927C26.9397 1.08831 25.7149 1.55548 24.4097 1.81619C23.3563 0.694631 21.8551 0 20.2174 0C17.0399 0 14.4819 2.57906 14.4819 5.74077C14.4819 6.19569 14.5203 6.63311 14.6148 7.04954C9.8434 6.81683 5.62137 4.52997 2.7851 1.04632C2.28994 1.90542 1.99949 2.88876 1.99949 3.94732C1.99949 5.93498 3.02306 7.69693 4.5488 8.71701C3.62671 8.69951 2.72211 8.43181 1.95575 8.01013C1.95575 8.02763 1.95575 8.05037 1.95575 8.07312C1.95575 10.8621 3.94516 13.1787 6.55396 13.7124C6.08679 13.8401 5.57763 13.9014 5.04922 13.9014C4.68178 13.9014 4.31084 13.8804 3.96265 13.8034C4.70627 16.0763 6.81641 17.7472 9.32548 17.8015C7.37282 19.3289 4.89349 20.2493 2.20945 20.2493C1.73878 20.2493 1.28736 20.2283 0.835938 20.1705C3.37825 21.81 6.39124 22.7461 9.64043 22.7461C20.2016 22.7461 25.9756 13.9976 25.9756 6.4144C25.9756 6.1607 25.9669 5.91574 25.9546 5.67253C27.0937 4.86417 28.0508 3.85459 28.8311 2.69279Z" fill="#1EDB84"/>
</svg>
