<svg width="101" height="97" viewBox="0 0 101 97" fill="none" xmlns="http://www.w3.org/2000/svg">
<path d="M60.5922 80.7896C60.5787 86.7628 62.7974 92.5256 66.813 96.9476H0V92.9081C0.00483596 84.3935 2.45591 76.0597 7.06151 68.8983C11.6671 61.7369 18.2333 56.0495 25.9787 52.5131C33.724 48.9766 42.3224 47.7399 50.7504 48.9502C59.1785 50.1605 67.0814 53.7668 73.5186 59.34C69.6152 61.3996 66.3483 64.4859 64.0703 68.2659C61.7923 72.046 60.5897 76.3762 60.5922 80.7896ZM44.4343 40.3948C48.429 40.3948 52.3339 39.2103 55.6554 36.9909C58.9768 34.7716 61.5656 31.6172 63.0943 27.9266C64.623 24.236 65.0229 20.175 64.2436 16.2571C63.4643 12.3392 61.5407 8.74035 58.716 5.91569C55.8914 3.09103 52.2925 1.16742 48.3746 0.388097C44.4567 -0.391225 40.3957 0.00875121 36.7051 1.53745C33.0145 3.06614 29.8601 5.65489 27.6408 8.97634C25.4214 12.2978 24.2369 16.2027 24.2369 20.1974C24.2369 25.5541 26.3648 30.6914 30.1526 34.4791C33.9403 38.2669 39.0776 40.3948 44.4343 40.3948ZM100.987 40.3948V32.3159H80.7896V65.1972C76.9818 66.1804 73.6632 68.5186 71.456 71.7735C69.2488 75.0285 68.3044 78.9767 68.8 82.878C69.2955 86.7794 71.1969 90.3662 74.1478 92.9659C77.0986 95.5657 80.8964 97 84.8291 97C88.7618 97 92.5596 95.5657 95.5104 92.9659C98.4613 90.3662 100.363 86.7794 100.858 82.878C101.354 78.9767 100.409 75.0285 98.2022 71.7735C95.995 68.5186 92.6764 66.1804 88.8686 65.1972V56.5527H96.9475V48.4738H88.8686V40.3948H100.987Z" fill="#313A5A"/>
</svg>
