<svg width="26" height="25" viewBox="0 0 26 25" fill="none" xmlns="http://www.w3.org/2000/svg">
<g clip-path="url(#clip0_71_798)">
<path fill-rule="evenodd" clip-rule="evenodd" d="M3.6059 25H23.0503C24.5845 25 25.8281 23.7563 25.8281 22.2222V2.77778C25.8281 1.24365 24.5845 0 23.0503 0H3.6059C2.07178 0 0.828125 1.24365 0.828125 2.77778V22.2222C0.828125 23.7563 2.07178 25 3.6059 25Z" fill="#1EDB84"/>
<path fill-rule="evenodd" clip-rule="evenodd" d="M22.3563 21.5282H18.6465V15.2095C18.6465 13.4771 17.9882 12.509 16.617 12.509C15.1253 12.509 14.3459 13.5164 14.3459 15.2095V21.5282H10.7707V9.49118H14.3459V11.1126C14.3459 11.1126 15.4209 9.12343 17.9753 9.12343C20.5285 9.12343 22.3563 10.6825 22.3563 13.9071V21.5282ZM6.50542 7.91502C5.28761 7.91502 4.30078 6.92045 4.30078 5.69384C4.30078 4.46722 5.28761 3.47266 6.50542 3.47266C7.72323 3.47266 8.70946 4.46722 8.70946 5.69384C8.70946 6.92045 7.72323 7.91502 6.50542 7.91502ZM4.65931 21.5282H8.38738V9.49118H4.65931V21.5282Z" fill="#313A5A"/>
</g>
<defs>
<clipPath id="clip0_71_798">
<rect width="25" height="25" fill="white" transform="translate(0.828125)"/>
</clipPath>
</defs>
</svg>
