<svg width="79" height="97" viewBox="0 0 79 97" fill="none" xmlns="http://www.w3.org/2000/svg">
<path d="M46.1907 4.62054L45.9482 4.1312C44.6795 1.59789 42.0942 0 39.2622 0C36.4303 0 33.845 1.59789 32.5762 4.1312L32.3337 4.62054H23.0971L18.4766 13.8572H60.048L55.4275 4.62054H46.1907Z" fill="#313A5A"/>
<path d="M63.4915 12.9782H69.2856C70.4071 12.9912 71.3079 13.8919 71.3208 15.0134V86.6072C71.3078 87.7244 70.4071 88.6294 69.2856 88.6381H9.24094C8.1194 88.6294 7.21868 87.7244 7.20571 86.6072V15.0134C7.2187 13.8919 8.11942 12.9912 9.24094 12.9782H15.0393L18.062 6.92871H0V97.0001H78.5268V6.92871H60.4648L63.4915 12.9782Z" fill="#313A5A"/>
<path d="M11.2734 84.5759H67.2563V17.0439H11.2734V84.5759ZM57.7425 76.2139H41.5729C40.2998 76.2139 39.2649 75.179 39.2649 73.9059C39.2649 72.6285 40.2998 71.5935 41.5729 71.5935H57.7425C59.0156 71.5935 60.0506 72.6285 60.0506 73.9059C60.0506 75.179 59.0156 76.2139 57.7425 76.2139ZM20.7872 28.8702H34.6443C35.9217 28.8702 36.9567 29.9008 36.9567 31.1782C36.9567 32.4556 35.9218 33.4863 34.6443 33.4863H20.7872C19.5141 33.4863 18.4792 32.4556 18.4792 31.1782C18.4792 29.9008 19.5141 28.8702 20.7872 28.8702ZM20.7872 39.263H57.7425C59.0156 39.263 60.0506 40.2937 60.0506 41.5711C60.0506 42.8485 59.0156 43.8791 57.7425 43.8791H20.7872C19.5141 43.8791 18.4792 42.8485 18.4792 41.5711C18.4792 40.2937 19.5141 39.263 20.7872 39.263ZM20.7872 49.6559H57.7425C59.0156 49.6559 60.0506 50.6865 60.0506 51.9639C60.0506 53.2414 59.0156 54.272 57.7425 54.272H20.7872C19.5141 54.272 18.4792 53.2414 18.4792 51.9639C18.4792 50.6865 19.5141 49.6559 20.7872 49.6559ZM20.7872 61.205L57.7425 61.2007C59.0156 61.2007 60.0506 62.2356 60.0506 63.513C60.0506 64.7861 59.0156 65.8211 57.7425 65.8211H20.7872C19.5141 65.8211 18.4792 64.7861 18.4792 63.513C18.4792 62.2356 19.5141 61.2007 20.7872 61.2007V61.205Z" fill="#313A5A"/>
</svg>
