<svg width="90" height="102" viewBox="0 0 90 102" fill="none" xmlns="http://www.w3.org/2000/svg">
<path d="M44.6386 0.0133949C44.6118 0.0133949 44.585 0.0133949 44.5716 0.0133949V0.0267886C42.1338 0.267892 35.7311 2.02259 27.7881 5.07656C19.7781 8.15732 11.9423 9.28247 5.39233 10.9702C-1.11746 12.6445 0.0880584 20.4536 0.0880584 20.4536C0.0880584 20.4536 2.52588 52.0113 3.51708 57.2084C8.25877 82.042 44.0894 102 44.0894 102H44.1028C44.1028 102 80.6299 82.6314 85.5725 57.329C86.6039 52.0113 89.1623 19.7169 89.1623 19.7169C89.1623 19.7169 90.4214 11.7069 83.6169 10.1263C76.8124 8.54576 68.7355 7.58135 60.5514 4.66133C52.5012 1.78148 47.13 0.187525 44.7189 0.0133949V0C44.6921 0.0133946 44.6653 0.0133949 44.6386 0.0133949ZM57.5644 11.6131C63.833 13.8634 69.8874 15.0422 75.2453 16.0869C75.2453 16.0869 80.0941 17.2657 80.9246 17.4398C80.9246 17.4398 81.1255 17.413 81.0719 18.7659C81.0585 18.9802 81.0317 19.007 81.0183 19.2347C80.0539 31.5443 78.2457 52.4131 77.5491 55.9895C75.4194 66.8793 65.5743 76.9387 57.7251 83.4351C52.5146 87.7481 47.4514 91.0968 44.0894 93.173C40.7943 91.07 35.8785 87.6945 30.7751 83.3815C22.9795 76.7779 13.2818 66.6784 11.219 55.8957C10.5493 52.373 8.80795 31.906 7.87033 19.8374C7.85694 19.6097 7.85694 19.5695 7.81675 19.3686C7.77657 18.9132 7.81675 18.3104 7.89712 17.8952C9.61163 17.4666 11.4735 17.0647 13.4291 16.6361C18.6396 15.511 24.56 14.2251 30.7082 11.8676C37.6466 9.2155 42.5758 7.87603 44.5716 7.48759C45.8843 7.76888 49.2999 8.63953 57.5644 11.6131Z" fill="#313A5A"/>
<path d="M44.5019 10.2741C44.4885 10.2741 44.4617 10.2741 44.4483 10.2741V10.2875C42.64 10.4751 37.9117 11.8279 32.0181 14.1988C26.0843 16.5964 20.2576 17.467 15.382 18.7797C10.5465 20.0924 11.4306 26.2271 11.4306 26.2271C11.4306 26.2271 13.2522 51.034 13.9889 55.1193C17.5117 74.6353 44.0866 90.2132 44.0866 90.2132H44.1C44.1 90.2132 71.05 74.9701 74.6799 55.1863C75.4434 51.034 77.3187 25.7851 77.3187 25.7851C77.3187 25.7851 78.2429 19.5298 73.2333 18.2841C68.2237 17.0384 62.2765 16.2615 56.2356 13.9577C50.3017 11.694 46.3235 10.4215 44.5421 10.2741V10.2607C44.5421 10.2741 44.5153 10.2741 44.5019 10.2741Z" fill="#313A5A"/>
</svg>
