<svg width="424" height="424" viewBox="0 0 424 424" fill="none" xmlns="http://www.w3.org/2000/svg">
<g filter="url(#filter0_d_71_434)">
<rect x="114.656" y="72" width="236.302" height="236.302" rx="49.1684" transform="rotate(9.41571 114.656 72)" fill="white"/>
<path d="M205.788 226.227L202.177 248.002C202.066 248.67 202.519 249.302 203.186 249.413L273.351 261.048C274.02 261.159 274.651 260.707 274.761 260.039L278.372 238.264C278.483 237.596 278.032 236.964 277.363 236.853L207.199 225.218C206.53 225.107 205.899 225.559 205.788 226.227ZM269.307 247.947C268.864 250.62 266.338 252.427 263.666 251.984C260.994 251.541 259.186 249.015 259.629 246.342C260.072 243.67 262.598 241.863 265.271 242.306C267.943 242.749 269.75 245.275 269.307 247.947ZM248.936 235.868C249.605 235.979 250.056 236.611 249.945 237.279L247.538 251.795C247.427 252.463 246.797 252.915 246.128 252.805L207.416 246.385C206.748 246.274 206.296 245.642 206.407 244.975L208.814 230.458C208.925 229.79 209.557 229.338 210.225 229.449L248.936 235.868Z" fill="black"/>
<path d="M217.084 233.074L215.078 245.171L216.288 245.372L218.294 233.274L217.084 233.074Z" fill="black"/>
<path d="M220.709 233.675L218.703 245.772L219.913 245.973L221.919 233.876L220.709 233.675Z" fill="black"/>
<path d="M224.342 234.276L222.336 246.373L223.546 246.574L225.552 234.476L224.342 234.276Z" fill="black"/>
<rect x="209.469" y="226.668" width="65.6356" height="23.2901" transform="rotate(9.41571 209.469 226.668)" fill="white"/>
<path d="M217.281 231.885L216.093 231.688L215.896 232.876L213.89 244.974L213.693 246.162L214.881 246.359L216.091 246.56L217.279 246.757L217.476 245.569L219.482 233.471L219.679 232.283L218.491 232.086L217.281 231.885Z" fill="#1EDB84" stroke="white" stroke-width="2.40932"/>
<path d="M220.906 232.487L219.718 232.29L219.521 233.478L217.515 245.575L217.318 246.764L218.506 246.961L219.716 247.162L220.904 247.359L221.101 246.17L223.107 234.073L223.304 232.884L222.116 232.687L220.906 232.487Z" fill="#1EDB84" stroke="white" stroke-width="2.40932"/>
<path d="M224.539 233.087L223.351 232.89L223.154 234.079L221.148 246.176L220.95 247.364L222.139 247.561L223.349 247.762L224.537 247.959L224.734 246.771L226.74 234.673L226.937 233.485L225.749 233.288L224.539 233.087Z" fill="#1EDB84" stroke="white" stroke-width="2.40932"/>
<path d="M204.6 226.03L200.989 247.805C200.769 249.129 201.665 250.381 202.989 250.601L273.154 262.236C274.48 262.456 275.73 261.559 275.95 260.236L279.561 238.461C279.78 237.137 278.886 235.885 277.56 235.665L207.396 224.029C206.069 223.809 204.819 224.706 204.6 226.03ZM268.119 247.75C267.784 249.766 265.879 251.13 263.863 250.795C261.847 250.461 260.483 248.556 260.818 246.54C261.152 244.524 263.058 243.16 265.074 243.494C267.09 243.829 268.453 245.734 268.119 247.75ZM248.739 237.057C248.745 237.058 248.746 237.059 248.747 237.059C248.749 237.06 248.751 237.062 248.753 237.065C248.756 237.068 248.757 237.071 248.757 237.073C248.757 237.074 248.757 237.075 248.757 237.077C248.757 237.078 248.757 237.079 248.757 237.081L246.35 251.598C246.349 251.604 246.348 251.605 246.347 251.606C246.346 251.608 246.344 251.61 246.341 251.613C246.338 251.615 246.335 251.616 246.333 251.616L246.333 251.616C246.332 251.616 246.33 251.617 246.325 251.616L207.613 245.197C207.608 245.196 207.607 245.195 207.606 245.194C207.604 245.193 207.602 245.191 207.599 245.188C207.597 245.184 207.596 245.181 207.595 245.179C207.595 245.178 207.595 245.177 207.595 245.172L210.003 230.655C210.004 230.65 210.005 230.648 210.005 230.647C210.006 230.646 210.008 230.643 210.012 230.641C210.015 230.639 210.018 230.637 210.02 230.637C210.021 230.637 210.023 230.636 210.028 230.637L248.739 237.057Z" fill="#1EDB84" stroke="white" stroke-width="2.40932"/>
<path d="M227.499 169.659L214.033 187.148C213.62 187.685 213.72 188.455 214.257 188.868L270.612 232.257C271.149 232.67 271.919 232.57 272.332 232.033L285.797 214.544C286.21 214.007 286.111 213.238 285.574 212.824L229.218 169.435C228.681 169.022 227.912 169.123 227.499 169.659ZM273.234 218.799C271.581 220.946 268.501 221.346 266.355 219.693C264.208 218.041 263.808 214.961 265.46 212.815C267.113 210.668 270.193 210.268 272.339 211.92C274.486 213.573 274.886 216.653 273.234 218.799ZM260.981 198.532C261.518 198.946 261.617 199.716 261.204 200.252L252.227 211.912C251.814 212.448 251.045 212.549 250.507 212.135L219.415 188.197C218.879 187.784 218.778 187.013 219.191 186.477L228.168 174.817C228.581 174.281 229.352 174.181 229.888 174.594L260.981 198.532Z" fill="black"/>
<path d="M234.223 181.028L226.742 190.744L227.714 191.492L235.195 181.776L234.223 181.028Z" fill="black"/>
<path d="M237.137 183.271L229.656 192.987L230.628 193.735L238.109 184.019L237.137 183.271Z" fill="black"/>
<path d="M240.055 185.516L232.574 195.232L233.546 195.981L241.027 186.264L240.055 185.516Z" fill="black"/>
<rect x="230.535" y="171.785" width="65.6357" height="23.2901" transform="rotate(37.5931 230.535 171.785)" fill="white"/>
<path d="M234.958 180.073L234.003 179.338L233.268 180.293L225.788 190.009L225.053 190.964L226.007 191.699L226.979 192.447L227.933 193.182L228.668 192.227L236.149 182.511L236.884 181.556L235.93 180.821L234.958 180.073Z" fill="#1EDB84" stroke="white" stroke-width="2.40932"/>
<path d="M237.872 182.316L236.917 181.581L236.183 182.536L228.702 192.252L227.967 193.207L228.921 193.942L229.893 194.69L230.848 195.425L231.582 194.47L239.063 184.754L239.798 183.799L238.844 183.064L237.872 182.316Z" fill="#1EDB84" stroke="white" stroke-width="2.40932"/>
<path d="M240.79 184.561L239.835 183.827L239.1 184.781L231.62 194.498L230.885 195.452L231.839 196.187L232.811 196.935L233.765 197.67L234.5 196.715L241.981 186.999L242.716 186.044L241.762 185.31L240.79 184.561Z" fill="#1EDB84" stroke="white" stroke-width="2.40932"/>
<path d="M226.544 168.924L213.079 186.414C212.26 187.477 212.458 189.004 213.522 189.823L269.877 233.211C270.942 234.031 272.468 233.831 273.286 232.768L286.752 215.279C287.57 214.216 287.374 212.689 286.308 211.869L229.953 168.481C228.888 167.661 227.362 167.861 226.544 168.924ZM272.279 218.064C271.032 219.683 268.709 219.986 267.09 218.739C265.47 217.492 265.168 215.169 266.415 213.549C267.662 211.93 269.985 211.628 271.604 212.875C273.224 214.121 273.526 216.445 272.279 218.064ZM260.246 199.487C260.25 199.49 260.251 199.492 260.252 199.493C260.252 199.494 260.254 199.497 260.254 199.501C260.255 199.505 260.254 199.508 260.254 199.51C260.254 199.51 260.253 199.511 260.252 199.513C260.252 199.514 260.251 199.515 260.25 199.517L251.273 211.177C251.269 211.181 251.268 211.182 251.267 211.183C251.265 211.184 251.262 211.185 251.258 211.185C251.254 211.186 251.251 211.185 251.25 211.185L251.25 211.185C251.249 211.185 251.247 211.184 251.242 211.181L220.15 187.242C220.146 187.239 220.145 187.238 220.145 187.237C220.144 187.235 220.142 187.232 220.142 187.228C220.141 187.224 220.142 187.221 220.142 187.219C220.142 187.218 220.143 187.216 220.146 187.212L229.123 175.552C229.126 175.548 229.128 175.547 229.128 175.547C229.13 175.546 229.133 175.545 229.137 175.544C229.141 175.544 229.145 175.544 229.146 175.545C229.147 175.545 229.149 175.545 229.153 175.548L260.246 199.487Z" fill="#1EDB84" stroke="white" stroke-width="2.40932"/>
<path d="M147.898 187.471L144.287 209.246C144.176 209.914 144.628 210.546 145.296 210.657L215.46 222.292C216.129 222.403 216.76 221.951 216.871 221.283L220.482 199.508C220.592 198.84 220.142 198.208 219.473 198.097L149.308 186.462C148.639 186.351 148.008 186.803 147.898 187.471ZM211.417 209.192C210.973 211.864 208.448 213.671 205.775 213.228C203.103 212.785 201.296 210.259 201.739 207.587C202.182 204.914 204.708 203.107 207.38 203.55C210.052 203.993 211.86 206.519 211.417 209.192ZM191.046 197.112C191.715 197.223 192.165 197.855 192.055 198.523L189.647 213.04C189.537 213.707 188.906 214.16 188.237 214.049L149.526 207.629C148.858 207.518 148.406 206.887 148.516 206.219L150.924 191.702C151.034 191.034 151.666 190.582 152.334 190.693L191.046 197.112Z" fill="black"/>
<path d="M159.194 194.318L157.188 206.415L158.397 206.616L160.403 194.518L159.194 194.318Z" fill="black"/>
<path d="M162.819 194.919L160.812 207.017L162.022 207.217L164.028 195.12L162.819 194.919Z" fill="black"/>
<path d="M166.451 195.52L164.445 207.617L165.655 207.818L167.661 195.72L166.451 195.52Z" fill="black"/>
<rect x="151.578" y="187.912" width="65.6356" height="23.2901" transform="rotate(9.41571 151.578 187.912)" fill="white"/>
<path d="M159.391 193.129L158.202 192.932L158.005 194.121L155.999 206.218L155.802 207.406L156.99 207.603L158.2 207.804L159.389 208.001L159.586 206.813L161.592 194.715L161.789 193.527L160.6 193.33L159.391 193.129Z" fill="#1EDB84" stroke="white" stroke-width="2.40932"/>
<path d="M163.016 193.731L161.827 193.534L161.63 194.722L159.624 206.82L159.427 208.008L160.615 208.205L161.825 208.406L163.014 208.603L163.211 207.414L165.217 195.317L165.414 194.128L164.225 193.931L163.016 193.731Z" fill="#1EDB84" stroke="white" stroke-width="2.40932"/>
<path d="M166.649 194.331L165.46 194.134L165.263 195.323L163.257 207.42L163.06 208.609L164.248 208.806L165.458 209.006L166.646 209.203L166.843 208.015L168.85 195.918L169.047 194.729L167.858 194.532L166.649 194.331Z" fill="#1EDB84" stroke="white" stroke-width="2.40932"/>
<path d="M146.709 187.274L143.098 209.049C142.879 210.373 143.774 211.626 145.099 211.845L215.263 223.481C216.589 223.7 217.84 222.803 218.059 221.48L221.67 199.705C221.89 198.381 220.996 197.129 219.67 196.909L149.505 185.274C148.179 185.054 146.929 185.951 146.709 187.274ZM210.228 208.994C209.894 211.01 207.988 212.374 205.972 212.04C203.956 211.705 202.593 209.8 202.927 207.784C203.261 205.768 205.167 204.404 207.183 204.739C209.199 205.073 210.562 206.978 210.228 208.994ZM190.849 198.301C190.854 198.302 190.856 198.303 190.857 198.303C190.858 198.304 190.86 198.306 190.863 198.309C190.865 198.313 190.866 198.315 190.866 198.317C190.867 198.318 190.867 198.319 190.867 198.321C190.867 198.322 190.867 198.324 190.866 198.326L188.459 212.842C188.458 212.848 188.457 212.85 188.456 212.85C188.455 212.852 188.453 212.854 188.45 212.857C188.447 212.859 188.444 212.86 188.443 212.86L188.443 212.86C188.442 212.861 188.44 212.861 188.434 212.86L149.723 206.441C149.718 206.44 149.716 206.439 149.715 206.438C149.714 206.437 149.711 206.435 149.709 206.432C149.706 206.428 149.705 206.425 149.705 206.424C149.704 206.423 149.704 206.421 149.705 206.416L152.112 191.899C152.113 191.894 152.114 191.892 152.115 191.892C152.116 191.89 152.118 191.888 152.121 191.885C152.124 191.883 152.127 191.882 152.129 191.881C152.13 191.881 152.132 191.88 152.137 191.881L190.849 198.301Z" fill="#1EDB84" stroke="white" stroke-width="2.40932"/>
<path d="M135.812 214.624L132.201 236.4C132.09 237.067 132.542 237.699 133.21 237.81L203.374 249.445C204.043 249.556 204.674 249.104 204.785 248.436L208.396 226.661C208.507 225.993 208.056 225.362 207.387 225.251L137.222 213.615C136.553 213.504 135.922 213.957 135.812 214.624ZM199.331 236.345C198.888 239.017 196.362 240.824 193.689 240.381C191.017 239.938 189.21 237.412 189.653 234.74C190.096 232.068 192.622 230.26 195.294 230.703C197.966 231.147 199.774 233.673 199.331 236.345ZM178.96 224.266C179.629 224.377 180.08 225.008 179.969 225.676L177.561 240.193C177.451 240.861 176.82 241.313 176.151 241.202L137.44 234.782C136.772 234.672 136.32 234.04 136.43 233.372L138.838 218.855C138.949 218.187 139.58 217.735 140.248 217.846L178.96 224.266Z" fill="black"/>
<path d="M147.108 221.471L145.102 233.568L146.311 233.769L148.317 221.672L147.108 221.471Z" fill="black"/>
<path d="M150.733 222.073L148.727 234.17L149.936 234.371L151.942 222.273L150.733 222.073Z" fill="black"/>
<path d="M154.365 222.673L152.359 234.771L153.569 234.971L155.575 222.874L154.365 222.673Z" fill="black"/>
<rect x="139.492" y="215.065" width="65.6356" height="23.2901" transform="rotate(9.41571 139.492 215.065)" fill="white"/>
<path d="M147.305 220.283L146.116 220.085L145.919 221.274L143.913 233.371L143.716 234.56L144.904 234.757L146.114 234.957L147.303 235.154L147.5 233.966L149.506 221.869L149.703 220.68L148.514 220.483L147.305 220.283Z" fill="#1EDB84" stroke="white" stroke-width="2.40932"/>
<path d="M150.93 220.884L149.741 220.687L149.544 221.875L147.538 233.973L147.341 235.161L148.529 235.358L149.739 235.559L150.928 235.756L151.125 234.568L153.131 222.47L153.328 221.282L152.139 221.085L150.93 220.884Z" fill="#1EDB84" stroke="white" stroke-width="2.40932"/>
<path d="M154.563 221.485L153.374 221.288L153.177 222.476L151.171 234.573L150.974 235.762L152.162 235.959L153.372 236.16L154.56 236.357L154.758 235.168L156.764 223.071L156.961 221.882L155.772 221.685L154.563 221.485Z" fill="#1EDB84" stroke="white" stroke-width="2.40932"/>
<path d="M134.623 214.427L131.012 236.203C130.793 237.527 131.689 238.779 133.013 238.998L203.177 250.634C204.503 250.854 205.754 249.957 205.973 248.633L209.584 226.858C209.804 225.535 208.91 224.282 207.584 224.062L137.419 212.427C136.093 212.207 134.843 213.104 134.623 214.427ZM198.142 236.148C197.808 238.164 195.902 239.527 193.886 239.193C191.87 238.859 190.507 236.953 190.841 234.937C191.176 232.921 193.081 231.558 195.097 231.892C197.113 232.226 198.477 234.132 198.142 236.148ZM178.763 225.454C178.768 225.455 178.77 225.456 178.771 225.457C178.772 225.458 178.774 225.46 178.777 225.463C178.779 225.466 178.78 225.469 178.781 225.471C178.781 225.471 178.781 225.472 178.781 225.474C178.781 225.475 178.781 225.477 178.78 225.479L176.373 239.996C176.372 240.001 176.371 240.003 176.37 240.004C176.369 240.005 176.367 240.008 176.364 240.01C176.361 240.012 176.358 240.013 176.357 240.014L176.357 240.014C176.356 240.014 176.354 240.014 176.348 240.014L137.637 233.594C137.632 233.593 137.63 233.592 137.629 233.592C137.628 233.591 137.625 233.589 137.623 233.585C137.62 233.582 137.619 233.579 137.619 233.577C137.619 233.576 137.618 233.574 137.619 233.569L140.026 219.052C140.027 219.047 140.028 219.046 140.029 219.045C140.03 219.043 140.032 219.041 140.035 219.038C140.038 219.036 140.041 219.035 140.043 219.034C140.044 219.034 140.046 219.034 140.051 219.035L178.763 225.454Z" fill="#1EDB84" stroke="white" stroke-width="2.40932"/>
</g>
<defs>
<filter id="filter0_d_71_434" x="-7.5" y="-7.5" width="438.773" height="438.776" filterUnits="userSpaceOnUse" color-interpolation-filters="sRGB">
<feFlood flood-opacity="0" result="BackgroundImageFix"/>
<feColorMatrix in="SourceAlpha" type="matrix" values="0 0 0 0 0 0 0 0 0 0 0 0 0 0 0 0 0 0 127 0" result="hardAlpha"/>
<feOffset dy="4"/>
<feGaussianBlur stdDeviation="41.75"/>
<feComposite in2="hardAlpha" operator="out"/>
<feColorMatrix type="matrix" values="0 0 0 0 0 0 0 0 0 0.15 0 0 0 0 0.0809524 0 0 0 0.14 0"/>
<feBlend mode="luminosity" in2="BackgroundImageFix" result="effect1_dropShadow_71_434"/>
<feBlend mode="normal" in="SourceGraphic" in2="effect1_dropShadow_71_434" result="shape"/>
</filter>
</defs>
</svg>
