<svg width="221" height="258" viewBox="0 0 221 258" fill="none" xmlns="http://www.w3.org/2000/svg">
<g filter="url(#filter0_d_71_690)">
<circle cx="110.618" cy="107.618" r="64.6178" fill="#1EDB84" fill-opacity="0.94"/>
<circle cx="110.618" cy="107.618" r="70.3758" stroke="white" stroke-opacity="0.76" stroke-width="11.5159"/>
<g clip-path="url(#clip0_71_690)">
<path d="M142.394 104.572C141.982 93.8709 135.562 81.359 126.919 77.2432C121.486 74.6091 114.818 74.5268 108.974 76.5023C100.413 73.2097 89.712 73.9505 82.4683 79.4657C79.1756 81.9352 76.2946 85.8863 74.8129 90.0844C68.7215 96.4227 65.0996 105.313 70.2855 113.215C70.6148 113.709 70.9441 114.203 71.3556 114.697C70.2032 122.928 74.6483 131.078 81.8097 135.605C87.0779 138.898 94.3217 140.297 101.236 139.638C104.364 141.12 107.575 142.108 110.62 142.602C120.992 144.33 134.574 142.931 141.489 134.041C148.156 125.562 146.51 113.791 142.394 104.572ZM99.4253 134.864C96.7912 133.053 94.1571 130.666 92.6754 127.785C93.2516 127.95 93.9101 128.114 94.4863 128.197C98.3552 129.761 102.306 130.913 105.599 131.901C107.328 132.477 109.139 132.971 110.949 133.465C110.126 133.876 109.221 134.206 108.315 134.535C106.175 135.276 103.87 135.77 101.565 136.099C100.825 135.77 100.084 135.358 99.4253 134.864ZM77.6939 91.7307C78.3525 91.0722 79.011 90.4137 79.7518 89.8375C84.9377 85.5571 91.6876 83.4169 98.2729 83.7461C97.3674 84.8985 96.6266 86.051 96.0503 87.368C95.7211 88.0265 95.4741 88.6851 95.3095 89.3436C95.2272 89.3436 95.1449 89.4259 95.0626 89.4259C93.3339 88.7674 91.523 88.4381 89.6297 88.8497C84.5261 89.8375 81.8097 94.5295 80.4927 99.7154C79.7518 100.292 79.011 100.95 78.3525 101.609C76.7062 98.7276 76.7062 95.1057 77.6939 91.7307ZM108.809 79.9596C113.09 81.8529 116.3 84.7339 118.276 88.2735C118.029 88.3558 117.782 88.3558 117.535 88.4381C117.37 88.4381 117.205 88.3558 117.041 88.3558C115.971 87.2034 114.736 86.2156 113.501 85.3924C111.032 83.7461 108.233 82.5114 105.434 81.6882C106.422 80.9474 107.575 80.3712 108.809 79.9596ZM96.7912 125.48C94.7333 124.657 92.9223 123.669 91.3584 122.599C91.3584 117.496 95.4741 114.285 100.248 113.709C98.8491 116.919 98.8491 120.13 103.047 121.117C106.751 121.941 110.785 121.035 114.324 119.142C114.901 119.8 115.395 120.459 115.806 121.2C112.596 124.163 107.904 125.974 103.212 126.056C101.154 126.056 98.9314 125.809 96.7912 125.48ZM97.779 96.0935C97.8613 96.0935 98.0259 96.0935 98.1082 96.0935C99.4253 97.8221 100.084 99.7977 99.7545 101.938C98.6844 100.209 98.0259 98.2337 97.779 96.0935ZM101.895 96.2581C103.87 96.5051 105.846 96.9989 107.657 97.7398C107.081 100.045 107.163 102.514 107.821 104.901C106.998 105.395 106.257 105.889 105.599 106.465C104.447 106.054 103.376 105.56 102.389 104.819C103.623 102.103 103.212 98.9745 101.895 96.2581ZM114.489 115.191C113.007 113.874 111.361 112.804 109.55 112.063C108.315 111.569 107.081 111.157 105.764 110.91C106.093 110.581 106.34 110.252 106.587 110.005C107.821 110.169 109.139 110.252 110.538 110.169C111.114 110.993 111.69 111.733 112.431 112.474C113.254 113.297 114.16 114.121 115.148 114.861C114.901 114.944 114.654 115.108 114.489 115.191ZM103.459 113.627C103.87 113.709 104.282 113.709 104.776 113.874C106.998 114.368 109.468 115.355 111.526 116.755C110.044 117.331 108.562 117.742 106.916 117.989C105.928 118.072 103.459 118.483 102.636 117.578C101.977 116.59 102.553 115.108 103.459 113.627ZM111.773 106.548C113.501 105.807 115.312 105.313 117.205 104.984C117.452 105.313 117.617 105.642 117.864 105.971C118.687 107.288 119.263 108.688 119.593 109.923C119.346 110.499 119.016 111.075 118.687 111.651C118.358 111.98 118.029 112.392 117.699 112.721C115.395 111.075 113.172 108.935 111.773 106.548ZM116.218 92.3893C118.358 95.0234 119.84 98.069 120.416 101.279C119.757 101.279 119.181 101.362 118.523 101.444C116.629 99.3038 114.407 97.5752 111.855 96.1758C113.007 94.5295 114.489 93.2124 116.218 92.3893ZM114.654 102.185C113.172 102.596 111.773 103.008 110.456 103.667C110.456 103.584 110.373 103.502 110.373 103.42C110.044 101.938 110.126 100.539 110.538 99.1392C112.02 99.88 113.419 100.95 114.654 102.185ZM116.794 117.578C117.205 117.331 117.535 117.002 117.864 116.755C118.111 116.919 118.44 117.084 118.769 117.249C118.523 117.825 118.193 118.401 117.782 118.895C117.452 118.483 117.123 117.989 116.794 117.578ZM108.974 94.7764C106.669 93.8709 104.282 93.2124 101.977 92.9655C101.236 92.8832 100.413 92.8832 99.6722 92.8008C99.4253 92.4716 99.096 92.1423 98.7668 91.8954C103.212 90.9899 107.739 90.6606 112.184 91.0722C110.785 92.1423 109.715 93.3771 108.974 94.7764ZM94.5687 93.1301C94.5687 93.2124 94.5687 93.2124 94.5687 93.2947C91.3583 93.8709 88.148 95.0234 85.1847 96.5874C85.3493 96.3404 85.5139 96.0935 85.5963 95.8465C87.9834 92.3069 91.0291 91.2368 94.5687 93.1301ZM94.5687 96.505C94.8979 99.7977 96.215 102.843 98.2729 105.313C94.7333 109.923 87.6541 108.852 82.8798 106.054C82.9621 104.572 83.1268 103.008 83.456 101.526C86.7487 99.0568 90.6175 97.3282 94.5687 96.505ZM82.6329 110.169C82.6329 110.005 82.6329 109.923 82.6329 109.758C88.6419 112.639 96.3796 112.639 100.742 107.618C101.483 108.112 102.224 108.605 103.047 108.935C102.883 109.182 102.636 109.429 102.471 109.593C102.306 109.84 102.224 110.005 102.224 110.252C102.142 110.334 102.142 110.416 102.059 110.499C95.3918 110.499 88.9712 113.956 88.2304 121.035C84.6908 118.319 82.3859 114.779 82.6329 110.169ZM109.797 128.197C112.431 127.456 114.901 126.221 116.959 124.657C117.123 125.892 116.959 126.962 116.629 127.95C114.407 128.279 112.102 128.361 109.797 128.197ZM119.51 122.352C120.498 121.282 121.239 120.047 121.897 118.73C124.367 119.718 126.919 120.377 129.388 120.541C128.73 121.776 127.907 122.846 126.919 123.752C125.108 125.316 122.803 126.468 120.169 127.209C120.251 125.645 120.087 123.998 119.51 122.352ZM122.885 115.849C123.132 114.697 123.215 113.544 123.215 112.31C123.215 111.569 123.132 110.746 122.968 110.005C123.626 108.276 123.873 106.465 123.955 104.654C128.565 105.395 130.952 109.182 130.952 114.203C130.952 115.355 130.788 116.508 130.541 117.578C127.907 117.66 125.272 116.919 122.885 115.849ZM124.285 101.362C124.12 101.362 123.873 101.362 123.708 101.362C124.038 98.6453 123.955 96.0935 123.544 93.624C125.108 94.2002 126.589 94.8587 128.071 95.6819C133.586 98.5629 137.455 103.584 138.854 109.182C138.608 111.487 137.784 113.709 136.056 115.355C135.397 116.014 134.656 116.508 133.833 116.837C134.821 109.676 132.269 102.103 124.285 101.362ZM109.056 86.5448C109.797 86.8741 110.456 87.2857 111.114 87.7796C106.998 87.615 102.883 87.9442 99.096 88.6027C99.2607 88.2735 99.4253 87.9442 99.5899 87.6973C100.331 86.4625 101.236 85.3101 102.224 84.24C104.529 84.6516 106.834 85.3924 109.056 86.5448ZM78.1878 106.795C78.5171 107.124 78.9287 107.453 79.3403 107.782C79.2579 109.593 79.2579 111.24 79.3403 112.721C79.5049 115.438 80.4927 117.825 81.9744 119.8C79.8342 118.483 77.9409 117.002 76.2123 115.355C75.7184 114.861 75.2245 114.368 74.8129 113.874C75.1422 112.557 75.5537 111.322 76.1299 110.087C76.7885 108.852 77.447 107.782 78.1878 106.795ZM118.852 130.831C125.355 129.514 130.788 126.221 133.01 120.377C135.48 119.883 137.62 118.648 139.348 116.508C139.019 118.73 138.278 121.035 137.126 123.175C132.681 131.16 125.766 132.559 118.44 131.654C118.523 131.407 118.687 131.078 118.852 130.831ZM124.202 79.548C131.035 82.0998 134.903 89.179 137.044 96.0112C133.01 91.4838 127.577 88.0265 121.815 87.8619C120.169 84.4046 117.617 81.359 113.913 78.9718C113.748 78.8895 113.584 78.7249 113.419 78.6425C117.041 78.0663 120.827 78.3133 124.202 79.548ZM104.447 78.4779C103.294 79.1364 102.142 79.8773 101.154 80.7828C94.4863 79.8773 87.4895 81.1943 81.6451 84.6516C87.1602 78.3956 96.3796 76.5847 104.447 78.4779ZM71.7672 100.785C72.2611 99.3861 72.9196 98.069 73.6605 96.8343C73.7428 99.4684 74.4013 102.02 76.0476 104.325C74.7306 106.054 73.5782 107.865 72.755 109.923C72.6727 110.087 72.6727 110.252 72.5904 110.416C71.0264 107.535 70.5325 104.325 71.7672 100.785ZM83.456 132.806C78.1878 129.514 74.7306 123.998 74.4013 118.154C78.3525 121.858 83.3737 124.739 88.6419 126.55C89.712 130.584 92.4285 133.794 95.8034 136.346C91.4407 136.181 87.1602 135.111 83.456 132.806ZM140.748 129.267C136.797 137.087 127.66 139.638 119.593 139.885C115.477 140.05 111.279 139.638 107.328 138.486C110.291 137.663 113.007 136.346 115.312 134.7C115.395 134.7 115.395 134.617 115.477 134.617C123.708 136.181 131.775 135.523 137.702 128.032C140.501 124.575 142.065 120.459 142.476 116.261C143.135 120.706 142.806 125.233 140.748 129.267Z" fill="white"/>
</g>
</g>
<path d="M113.149 241.626C113.149 250.463 120.313 257.626 129.149 257.626C137.986 257.626 145.149 250.463 145.149 241.626C145.149 232.79 137.986 225.626 129.149 225.626C120.313 225.626 113.149 232.79 113.149 241.626ZM117.021 165.356L126.171 241.982L132.128 241.271L122.979 164.644L117.021 165.356Z" fill="#1EDB84"/>
<defs>
<filter id="filter0_d_71_690" x="0.944248" y="0.823229" width="219.346" height="219.348" filterUnits="userSpaceOnUse" color-interpolation-filters="sRGB">
<feFlood flood-opacity="0" result="BackgroundImageFix"/>
<feColorMatrix in="SourceAlpha" type="matrix" values="0 0 0 0 0 0 0 0 0 0 0 0 0 0 0 0 0 0 127 0" result="hardAlpha"/>
<feOffset dy="2.87898"/>
<feGaussianBlur stdDeviation="16.7701"/>
<feComposite in2="hardAlpha" operator="out"/>
<feColorMatrix type="matrix" values="0 0 0 0 0 0 0 0 0 0 0 0 0 0 0 0 0 0 0.15 0"/>
<feBlend mode="normal" in2="BackgroundImageFix" result="effect1_dropShadow_71_690"/>
<feBlend mode="normal" in="SourceGraphic" in2="effect1_dropShadow_71_690" result="shape"/>
</filter>
<clipPath id="clip0_71_690">
<rect width="82.3157" height="102.895" fill="white" transform="translate(65.7578 67.6953)"/>
</clipPath>
</defs>
</svg>
