<svg width="94" height="94" viewBox="0 0 94 94" fill="none" xmlns="http://www.w3.org/2000/svg">
<path d="M47 46.7784L44.6182 44.3966L34.9171 34.6955C34.8682 34.6466 34.8345 34.6305 34.8233 34.6258C34.8164 34.623 34.812 34.6219 34.81 34.6215C34.8079 34.6211 34.8068 34.6211 34.8063 34.6211C34.8058 34.6211 34.8047 34.6211 34.8026 34.6215C34.8006 34.6219 34.7962 34.623 34.7894 34.6258C34.7781 34.6305 34.7444 34.6466 34.6955 34.6955L32.3137 32.3137L34.6955 34.6955C34.6466 34.7444 34.6305 34.7781 34.6258 34.7894C34.623 34.7962 34.6219 34.8006 34.6215 34.8026C34.6211 34.8047 34.6211 34.8058 34.6211 34.8063C34.6211 34.8066 34.6211 34.807 34.6211 34.8076C34.6212 34.8082 34.6213 34.809 34.6215 34.81C34.6219 34.812 34.623 34.8164 34.6258 34.8233C34.6305 34.8345 34.6466 34.8682 34.6955 34.9171L44.3966 44.6182L46.7784 47L44.3966 49.3818L34.6955 59.0829C34.6466 59.1318 34.6305 59.1655 34.6258 59.1767C34.6243 59.1804 34.6233 59.1834 34.6226 59.1857C34.622 59.1876 34.6217 59.1891 34.6215 59.19C34.6213 59.191 34.6212 59.1918 34.6211 59.1925C34.6211 59.193 34.6211 59.1934 34.6211 59.1937C34.6211 59.1942 34.6211 59.1953 34.6215 59.1974C34.6217 59.1985 34.6222 59.2004 34.623 59.2031C34.6237 59.2051 34.6246 59.2076 34.6258 59.2106C34.6305 59.2219 34.6466 59.2556 34.6955 59.3045C34.7003 59.3092 34.7037 59.3122 34.7056 59.3138L47 46.7784ZM47 46.7784L49.3818 44.3966M47 46.7784L49.3818 44.3966M49.3818 44.3966L59.0829 34.6955C59.1318 34.6466 59.1655 34.6305 59.1767 34.6258C59.1836 34.623 59.188 34.6219 59.19 34.6215C59.1921 34.6211 59.1932 34.6211 59.1937 34.6211C59.1942 34.6211 59.1953 34.6211 59.1974 34.6215C59.1994 34.6219 59.2038 34.623 59.2106 34.6258C59.2219 34.6305 59.2556 34.6466 59.3045 34.6955C59.3534 34.7444 59.3695 34.7781 59.3742 34.7894C59.3755 34.7926 59.3765 34.7953 59.3771 34.7974C59.3779 34.7998 59.3783 34.8015 59.3785 34.8026C59.3789 34.8047 59.379 34.8058 59.379 34.8063C59.379 34.8068 59.3789 34.8079 59.3785 34.81C59.3781 34.812 59.377 34.8164 59.3742 34.8233C59.3695 34.8345 59.3534 34.8682 59.3045 34.9171L49.6034 44.6182L47.2216 47M49.3818 44.3966L47.2216 47M47.2216 47L49.6034 49.3818L47.2216 47ZM47 47.2216L49.3818 49.6034L59.0829 59.3045C59.0876 59.3092 59.091 59.3122 59.093 59.3138L59.0963 59.3163L47 47.2216ZM47 47.2216L44.6182 49.6034M47 47.2216L44.6182 49.6034M44.6182 49.6034L34.9171 59.3045M44.6182 49.6034L34.9171 59.3045M34.9171 59.3045C34.9124 59.3092 34.909 59.3122 34.907 59.3138M34.9171 59.3045L34.907 59.3138M34.907 59.3138L34.9037 59.3163L34.907 59.3138ZM34.8063 59.3284C34.8747 59.3284 34.9024 59.3168 34.9027 59.3167L34.8063 59.3284ZM34.8063 59.3284C34.7379 59.3284 34.7102 59.3168 34.7099 59.3167M34.8063 59.3284L34.7099 59.3167M34.7099 59.3167L34.7091 59.3164M34.7099 59.3167L34.7091 59.3164M34.7091 59.3164L34.709 59.3163M34.7091 59.3164L34.709 59.3163M34.709 59.3163C34.709 59.3163 34.7089 59.3163 34.7089 59.3163L34.709 59.3163ZM59.0967 59.3164C59.0965 59.3164 59.0964 59.3163 59.0964 59.3163L59.2901 59.3167C59.2898 59.3168 59.2621 59.3284 59.1937 59.3284C59.1253 59.3284 59.0976 59.3168 59.0973 59.3167L59.0967 59.3164ZM47 82.3684C66.5109 82.3684 82.3684 66.5109 82.3684 47C82.3684 27.4891 66.5109 11.6316 47 11.6316C27.4891 11.6316 11.6316 27.4891 11.6316 47C11.6316 66.5109 27.4891 82.3684 47 82.3684Z" fill="white" stroke="white" stroke-width="6.73684"/>
<path d="M47 79C64.6505 79 79 64.6505 79 47C79 29.3495 64.6505 15 47 15C29.3495 15 15 29.3495 15 47C15 64.6505 29.3495 79 47 79ZM32.3137 37.2989C30.8989 35.8842 30.8989 33.7284 32.3137 32.3137C33.7284 30.8989 35.8842 30.8989 37.2989 32.3137L47 42.0147L56.7011 32.3137C58.1158 30.8989 60.2716 30.8989 61.6863 32.3137C63.1011 33.7284 63.1011 35.8842 61.6863 37.2989L51.9853 47L61.6863 56.7011C63.1011 58.1158 63.1011 60.2716 61.6863 61.6863C61.0126 62.36 60.1368 62.6968 59.1937 62.6968C58.2505 62.6968 57.3747 62.36 56.7011 61.6863L47 51.9853L37.2989 61.6863C36.6253 62.36 35.7495 62.6968 34.8063 62.6968C33.8632 62.6968 32.9874 62.36 32.3137 61.6863C30.8989 60.2716 30.8989 58.1158 32.3137 56.7011L42.0147 47L32.3137 37.2989Z" fill="white"/>
<path d="M47 86.4105C68.7432 86.4105 86.4105 68.7432 86.4105 47C86.4105 25.2568 68.7432 7.58947 47 7.58947C25.2568 7.58947 7.58947 25.2568 7.58947 47C7.58947 68.7432 25.2568 86.4105 47 86.4105Z" stroke="white" stroke-opacity="0.65" stroke-width="14.8211"/>
<path d="M47 79C64.6505 79 79 64.6505 79 47C79 29.3495 64.6505 15 47 15C29.3495 15 15 29.3495 15 47C15 64.6505 29.3495 79 47 79ZM32.3137 37.2989C30.8989 35.8842 30.8989 33.7284 32.3137 32.3137C33.7284 30.8989 35.8842 30.8989 37.2989 32.3137L47 42.0147L56.7011 32.3137C58.1158 30.8989 60.2716 30.8989 61.6863 32.3137C63.1011 33.7284 63.1011 35.8842 61.6863 37.2989L51.9853 47L61.6863 56.7011C63.1011 58.1158 63.1011 60.2716 61.6863 61.6863C61.0126 62.36 60.1368 62.6968 59.1937 62.6968C58.2505 62.6968 57.3747 62.36 56.7011 61.6863L47 51.9853L37.2989 61.6863C36.6253 62.36 35.7495 62.6968 34.8063 62.6968C33.8632 62.6968 32.9874 62.36 32.3137 61.6863C30.8989 60.2716 30.8989 58.1158 32.3137 56.7011L42.0147 47L32.3137 37.2989Z" fill="#4F4F4F"/>
</svg>
