<svg width="445" height="445" viewBox="0 0 445 445" fill="none" xmlns="http://www.w3.org/2000/svg">
<g filter="url(#filter0_d_71_378)">
<g clip-path="url(#clip0_71_378)">
<rect x="68" y="161.119" width="233.235" height="233.235" rx="48.5302" transform="rotate(-24.6076 68 161.119)" fill="white"/>
<g clip-path="url(#clip1_71_378)">
<path d="M187.676 242.35C185.973 243.138 184.067 243.376 182.223 243.034C174.318 241.632 166.265 240.259 158.477 238.93L150.992 237.654C150.734 237.61 150.48 237.57 150.228 237.511L149.986 237.463C149.035 237.281 148.154 236.837 147.441 236.181C146.729 235.525 146.214 234.683 145.954 233.75C145.695 232.816 145.701 231.829 145.973 230.899C146.245 229.969 146.771 229.134 147.492 228.487C148.124 227.918 148.761 227.359 149.398 226.8C150.759 225.609 152.023 224.493 153.232 223.323C157.622 219.028 161.456 214.199 164.642 208.948C167.466 204.368 169.845 199.527 171.745 194.493C172.002 193.76 172.402 193.087 172.922 192.511C173.443 191.936 174.073 191.47 174.776 191.142C176.018 190.582 177.416 190.473 178.73 190.833C186.986 192.907 195.38 195.003 203.489 197.033L210.361 198.746C210.674 198.826 210.928 198.909 211.153 198.984L211.464 199.087C212.161 199.309 212.803 199.677 213.349 200.165C213.894 200.653 214.331 201.251 214.629 201.919C214.927 202.588 215.08 203.311 215.079 204.043C215.079 204.775 214.923 205.498 214.623 206.166L214.324 206.824C214.151 207.196 214.005 207.514 213.894 207.793C210.785 215.647 207.073 222.443 202.545 228.558C198.39 234.177 193.982 238.433 189.07 241.572C188.619 241.863 188.148 242.122 187.661 242.347L187.676 242.35Z" fill="white"/>
<path d="M171.485 279.423C170.737 279.765 169.918 279.925 169.095 279.889C168.273 279.853 167.471 279.622 166.755 279.216C166.039 278.81 165.43 278.24 164.978 277.552C164.526 276.864 164.243 276.079 164.153 275.261L164.043 274.273C163.965 273.568 163.889 272.882 163.82 272.196C163.735 271.387 163.649 270.573 163.562 269.753C163.351 267.718 163.132 265.617 162.899 263.56C162.729 262.309 162.971 261.037 163.59 259.937C164.209 258.837 165.17 257.968 166.327 257.463C168.012 256.691 169.677 255.929 171.342 255.166C173.546 254.157 175.751 253.147 177.955 252.138C179.162 251.613 180.493 251.438 181.795 251.631C182.625 251.743 183.422 251.88 184.194 252.012C185.416 252.252 186.652 252.415 187.894 252.503C190.426 252.614 193.07 252.013 195.959 250.69C196.424 250.477 196.91 250.255 197.385 249.989C202.444 247.355 207.003 243.424 212.183 237.268C212.885 236.429 213.759 235.753 214.747 235.284C215.792 234.792 216.843 234.311 217.898 233.841L220.729 232.544C221.852 231.995 223.123 231.826 224.35 232.063C225.577 232.3 226.694 232.929 227.532 233.857C229.423 235.907 231.373 237.978 233.257 239.984C233.952 240.725 234.646 241.466 235.34 242.207C235.53 242.41 235.708 242.625 235.872 242.849L235.893 242.894C236.375 243.513 236.71 244.233 236.875 245C237.039 245.767 237.027 246.561 236.841 247.324C236.655 248.086 236.298 248.796 235.798 249.4C235.298 250.005 234.668 250.489 233.955 250.815L171.485 279.423Z" fill="white"/>
<path d="M173.232 282.713C172.462 283.062 171.62 283.225 170.774 283.188C169.929 283.15 169.105 282.914 168.368 282.497C167.631 282.078 167.003 281.49 166.537 280.781C166.071 280.072 165.78 279.263 165.688 278.42L165.59 277.562C165.523 276.957 165.46 276.376 165.399 275.791C165.283 274.678 165.519 273.557 166.073 272.585C166.627 271.613 167.472 270.84 168.489 270.373L229.096 242.615C230.115 242.147 231.255 242.011 232.356 242.227C233.457 242.442 234.462 242.998 235.23 243.815C235.746 244.367 236.693 245.394 237.114 245.847C237.67 246.474 238.071 247.223 238.287 248.033C238.502 248.843 238.526 249.693 238.355 250.513C238.181 251.333 237.818 252.1 237.296 252.754C236.773 253.408 236.105 253.931 235.344 254.281L173.232 282.713Z" fill="white"/>
<path d="M174.984 286.54C174.213 286.889 173.371 287.052 172.526 287.015C171.681 286.977 170.856 286.741 170.12 286.324C169.383 285.904 168.756 285.316 168.29 284.607C167.824 283.899 167.531 283.09 167.436 282.248L167.353 281.371C167.283 280.768 167.221 280.196 167.16 279.613C167.042 278.497 167.276 277.372 167.832 276.396C168.387 275.421 169.235 274.644 170.256 274.177L230.862 246.42C231.881 245.952 233.022 245.816 234.122 246.031C235.223 246.246 236.228 246.802 236.996 247.619C237.51 248.165 238.471 249.209 238.88 249.651C239.436 250.278 239.838 251.027 240.053 251.837C240.269 252.647 240.292 253.497 240.121 254.318C239.947 255.137 239.585 255.904 239.062 256.558C238.539 257.212 237.871 257.735 237.11 258.086L174.984 286.54Z" fill="white"/>
<path d="M176.737 290.366C175.967 290.716 175.125 290.879 174.279 290.841C173.434 290.804 172.61 290.567 171.873 290.15C171.137 289.73 170.51 289.142 170.044 288.433C169.577 287.725 169.285 286.917 169.19 286.074L169.106 285.197C169.036 284.594 168.974 284.022 168.914 283.44C168.795 282.323 169.029 281.198 169.585 280.222C170.14 279.247 170.988 278.47 172.009 278.003L232.616 250.246C233.635 249.778 234.775 249.642 235.876 249.857C236.977 250.072 237.982 250.628 238.75 251.446C239.266 251.997 240.215 253.027 240.633 253.477C241.19 254.105 241.591 254.853 241.807 255.664C242.022 256.474 242.046 257.323 241.875 258.144C241.701 258.963 241.338 259.73 240.816 260.384C240.293 261.039 239.625 261.562 238.864 261.912L176.737 290.366Z" fill="white"/>
<path d="M199.908 258.611C197.021 259.943 193.944 260.816 190.788 261.199C187.358 261.604 184.19 261.104 181.276 260.504C174.821 259.175 168.247 257.846 161.89 256.564L154.267 255.027C154.089 254.991 153.913 254.947 153.744 254.904L153.684 254.89C152.623 254.634 151.671 254.052 150.96 253.224C150.249 252.397 149.817 251.367 149.723 250.28C149.632 249.213 149.873 248.143 150.412 247.217C150.952 246.291 151.765 245.555 152.74 245.109L152.839 245.063C153.913 244.597 154.987 244.14 156.057 243.682C158.372 242.695 160.764 241.675 163.054 240.626L164.089 240.153C166.238 239.147 168.662 238.893 170.973 239.43C173.396 239.956 175.892 240.459 178.297 240.946C180.528 241.398 182.845 241.859 185.113 242.351C185.365 242.304 185.607 242.218 185.833 242.098C185.998 242.022 186.164 241.946 186.322 241.855C189.164 240.388 191.421 239.116 193.39 237.865C195.972 236.228 198.582 234.454 201.105 232.743L203.792 230.924C204.368 230.537 204.941 230.131 205.549 229.703C206.106 229.312 206.667 228.918 207.236 228.531C207.548 228.318 207.879 228.131 208.223 227.974C209.405 227.417 210.741 227.274 212.014 227.568C214.116 228.058 216.161 228.554 218.324 229.082L219.905 229.466C220.679 229.654 221.4 230.017 222.011 230.527C222.623 231.038 223.109 231.682 223.432 232.41C223.755 233.138 223.907 233.93 223.875 234.725C223.843 235.521 223.629 236.298 223.249 236.998L223.202 237.09C223.035 237.428 222.843 237.754 222.629 238.064C217.726 245.027 212.483 250.462 206.6 254.681C204.503 256.206 202.261 257.522 199.908 258.611Z" fill="white"/>
<path d="M189.33 250.191C187.232 251.132 184.885 251.363 182.643 250.852C175.528 249.37 168.268 247.905 161.266 246.489L154.201 245.061C154.061 245.033 153.915 244.999 153.74 244.955L153.653 244.931C152.607 244.672 151.668 244.094 150.965 243.278C150.263 242.461 149.831 241.447 149.729 240.375C149.629 239.301 149.865 238.222 150.405 237.288C150.945 236.354 151.762 235.612 152.743 235.163L153.728 234.712C153.967 234.602 154.206 234.493 154.445 234.384L155.019 234.146C157.112 233.277 159.289 232.371 161.442 231.522C162.673 231.054 164.009 230.934 165.304 231.173L168.159 231.657C173.325 232.532 178.657 233.435 183.925 234.387C188.427 231.655 192.348 227.807 196.257 222.283C196.705 221.652 197.141 220.986 197.603 220.282C198.02 219.646 198.451 218.991 198.912 218.326C199.527 217.452 200.366 216.758 201.34 216.318C202.501 215.771 203.811 215.632 205.061 215.923C209.614 217.014 214.22 218.129 218.679 219.216L219.644 219.451C220.306 219.613 220.931 219.898 221.487 220.29C222.211 220.743 222.813 221.367 223.238 222.108C223.664 222.848 223.9 223.682 223.927 224.535C223.953 225.39 223.768 226.237 223.388 227.003C223.009 227.769 222.446 228.429 221.75 228.925L217.744 231.802C214.704 233.989 211.561 236.248 208.439 238.427C205.791 240.276 202.265 242.704 198.562 245.016C196.022 246.602 193.411 248.011 190.891 249.384L189.983 249.876C189.765 249.982 189.55 250.09 189.33 250.191Z" fill="white"/>
<path d="M263.769 191.925C263.471 191.24 263.091 190.593 262.636 190.001C261.297 187.583 259.316 185.803 256.936 184.491C252.775 182.191 248.408 181.652 243.855 183.21L242.943 183.571C242.287 183.525 241.755 183.89 241.232 184.183C240.407 184.644 240.022 184.42 239.666 183.582C238.823 181.601 237.873 179.666 237.005 177.694C236.831 177.268 236.566 176.885 236.229 176.571C235.893 176.258 235.492 176.021 235.054 175.877C227.165 172.987 219.285 170.083 211.416 167.166C211.112 167.042 210.786 166.983 210.459 166.993C210.131 167.004 209.81 167.083 209.515 167.226C198.406 172.327 187.29 177.418 176.164 182.501C175.521 182.795 175.033 183.172 174.968 183.926L174.938 184.257C174.931 184.296 174.932 184.336 174.941 184.374C174.95 184.413 174.967 184.449 174.99 184.481C174.862 185.061 175.243 185.49 175.456 185.955C178.847 193.36 182.214 200.774 185.628 208.166C186.049 209.085 185.994 209.513 184.999 209.934C183.004 210.768 181.183 211.972 179.634 213.481C175.179 217.821 173.446 225.211 175.692 230.38C179.07 238.338 182.851 246.114 186.395 253.997C186.565 254.37 186.741 254.753 187.258 254.418L189.18 253.538L203.098 247.163C203.782 247.339 203.822 248.001 204.045 248.489C207.788 256.63 211.525 264.773 215.254 272.92C215.486 273.427 215.596 274.034 216.117 274.361C216.123 274.399 216.138 274.435 216.162 274.465C216.186 274.495 216.217 274.519 216.253 274.534C217.084 275.376 217.923 274.976 218.785 274.581L268.194 251.952C270 251.125 270.258 250.438 269.445 248.657C265.436 239.903 261.427 231.15 257.418 222.396C262.602 220.003 267.778 217.584 272.986 215.241C273.936 214.805 274.058 214.432 273.625 213.502C270.336 206.314 267.056 199.117 263.769 191.925ZM185.718 187.525L210.129 176.314C211.937 179.666 213.327 183.214 214.975 186.64C215.821 188.397 217.008 189.067 218.832 188.819C219.283 188.651 219.749 188.51 220.189 188.312C223.508 186.792 226.825 185.273 230.15 183.772C230.701 184.921 231.212 186.091 231.814 187.213C232.269 188.053 232.022 188.407 231.198 188.766C225.545 191.316 219.914 193.915 214.274 196.498C207.955 199.392 201.621 202.258 195.328 205.207C194.239 205.706 193.87 205.49 193.398 204.461C190.895 198.8 188.293 193.167 185.718 187.525ZM257.564 247.284L239.917 255.366C233.956 258.096 227.981 260.804 222.04 263.579C221.048 264.033 220.644 263.901 220.191 262.898C215.536 252.637 210.846 242.396 206.119 232.173C205.612 231.065 205.881 230.716 206.89 230.257C218.75 224.868 230.594 219.443 242.423 213.983C243.497 213.491 243.943 213.604 244.455 214.723C249.092 224.847 253.777 234.944 258.45 245.051C259.142 246.567 259.139 246.569 257.561 247.291L257.564 247.284ZM252.052 200.567C250.741 201.121 249.269 201.156 247.933 200.666C246.597 200.177 245.497 199.198 244.855 197.928C243.583 195.277 244.816 191.996 247.567 190.72C248.203 190.417 248.893 190.245 249.597 190.213C250.3 190.182 251.003 190.291 251.663 190.536C252.324 190.78 252.929 191.155 253.442 191.637C253.955 192.119 254.367 192.699 254.652 193.343C255.94 196.092 254.742 199.401 252.049 200.574L252.052 200.567Z" fill="#2BDD8B"/>
<path d="M238.81 236.614C237.999 236.327 237.844 236.008 238.163 235.201C239.22 232.493 240.169 229.752 241.236 227.052C241.567 226.221 241.371 225.91 240.568 225.636C238.533 224.938 236.498 224.212 234.511 223.384C233.633 223.021 233.409 223.336 233.145 224.077C232.152 226.854 231.081 229.6 230.095 232.374C229.842 233.084 229.579 233.188 228.887 232.927C226.142 231.859 223.354 230.896 220.615 229.806C219.726 229.454 219.424 229.662 219.138 230.514C218.45 232.557 217.704 234.583 216.891 236.575C216.559 237.363 216.788 237.633 217.517 237.893C220.291 238.885 223.035 239.96 225.814 240.942C226.58 241.227 226.711 241.513 226.422 242.271C225.35 245.015 224.376 247.799 223.308 250.544C223.023 251.31 223.141 251.602 223.915 251.87C225.997 252.578 228.062 253.342 230.096 254.17C230.881 254.497 231.133 254.263 231.396 253.54C232.384 250.765 233.461 248.019 234.442 245.241C234.705 244.485 234.976 244.327 235.755 244.64C238.495 245.72 241.273 246.707 244.031 247.743C244.327 247.879 244.612 248.037 244.884 248.217C245.081 247.809 245.207 247.583 245.292 247.347C246.081 245.248 246.827 243.13 247.662 241.048C247.981 240.247 247.829 239.914 247.01 239.625C244.249 238.646 241.551 237.576 238.81 236.614Z" fill="#2BDD8B"/>
</g>
</g>
</g>
<defs>
<filter id="filter0_d_71_378" x="-15.5" y="-15.5" width="476.172" height="476.172" filterUnits="userSpaceOnUse" color-interpolation-filters="sRGB">
<feFlood flood-opacity="0" result="BackgroundImageFix"/>
<feColorMatrix in="SourceAlpha" type="matrix" values="0 0 0 0 0 0 0 0 0 0 0 0 0 0 0 0 0 0 127 0" result="hardAlpha"/>
<feOffset dy="4"/>
<feGaussianBlur stdDeviation="41.75"/>
<feComposite in2="hardAlpha" operator="out"/>
<feColorMatrix type="matrix" values="0 0 0 0 0 0 0 0 0 0.15 0 0 0 0 0.0809524 0 0 0 0.14 0"/>
<feBlend mode="luminosity" in2="BackgroundImageFix" result="effect1_dropShadow_71_378"/>
<feBlend mode="normal" in="SourceGraphic" in2="effect1_dropShadow_71_378" result="shape"/>
</filter>
<clipPath id="clip0_71_378">
<rect x="68" y="161.119" width="233.235" height="233.235" rx="48.5302" transform="rotate(-24.6076 68 161.119)" fill="white"/>
</clipPath>
<clipPath id="clip1_71_378">
<rect width="160.344" height="101.476" fill="white" transform="translate(129 205.768) rotate(-24.6076)"/>
</clipPath>
</defs>
</svg>
