<svg width="467" height="454" viewBox="0 0 467 454" fill="none" xmlns="http://www.w3.org/2000/svg">
<g filter="url(#filter0_d_15_3)">
<g clip-path="url(#clip0_15_3)">
<rect x="159.938" y="80" width="235.778" height="235.778" rx="49.0594" transform="rotate(18.7875 159.938 80)" fill="white"/>
<path d="M520.483 212.54L406.686 39.0281C396.691 23.788 376.234 19.5361 360.993 29.5312L327.127 51.7422L226.365 117.827C219.206 122.521 217.209 132.13 221.904 139.288V139.288C226.599 146.447 224.602 156.055 217.443 160.75L104.923 234.546C93.5989 241.973 78.8869 241.727 67.8169 233.927L12.4392 194.906C-6.59893 181.491 -6.12546 153.108 13.3495 140.335L59.6473 109.971C79.8955 96.6914 79.4219 66.8517 58.7624 54.2212L31.6778 37.6628C27.5165 35.1187 23.9708 31.6839 21.296 27.6054L-2.0628 -8.01096C-12.058 -23.2511 -32.5152 -27.503 -47.7553 -17.5078L-149.66 49.3258C-169.598 62.4021 -196.397 50.6672 -200.31 27.1471L-209.964 -30.8732C-210.717 -35.3992 -212.405 -39.7185 -214.921 -43.5551L-219.332 -50.2799C-229.327 -65.52 -225.075 -85.9773 -209.835 -95.9725L-93.082 -172.544C-80.7673 -180.621 -75.2947 -195.88 -79.6695 -209.942L-107.056 -297.973C-107.969 -300.907 -109.287 -303.699 -110.972 -306.268L-125.433 -328.318C-135.428 -343.558 -131.176 -364.015 -115.936 -374.01L-1.37603 -449.144L83.0805 -504.534L187.188 -572.812C201.966 -582.504 221.803 -578.381 231.496 -563.603V-563.603C241.188 -548.825 261.025 -544.702 275.804 -554.394L395.799 -633.092C411.039 -643.087 431.496 -638.835 441.491 -623.595L483.446 -559.626C493.441 -544.386 489.189 -523.928 473.949 -513.933L327.709 -418.022C306.2 -403.916 308.383 -371.716 331.599 -360.643L382.007 -336.599C392.418 -331.633 404.666 -332.463 414.312 -338.789L541.574 -422.254C567.719 -439.4 600.83 -413.961 590.998 -384.281L559.04 -287.814C556.666 -280.645 556.821 -272.878 559.482 -265.81L600.037 -158.079C605.478 -143.624 600.166 -127.329 587.25 -118.858L536.05 -85.2788C519.911 -74.6943 498.173 -80.1583 488.958 -97.116L398.855 -262.909C389.64 -279.867 367.902 -285.331 351.763 -274.746L316.514 -251.629" stroke="white" stroke-width="8" stroke-dasharray="8 8"/>
</g>
</g>
<path d="M242.959 254.034L242.551 263.92C242.443 266.531 243.712 269.013 245.894 270.456L259.089 279.164C262.279 281.268 266.544 280.624 268.969 277.668L274.051 271.47C276.373 268.641 277.169 264.857 276.202 261.326C267.892 230.96 207.132 209.807 181.762 228.448C178.814 230.617 177.084 234.075 177.148 237.734C177.205 241.028 177.268 244.786 177.268 244.786C177.35 249.577 180.293 252.73 184.097 253.057L199.847 254.426C202.452 254.654 204.989 253.492 206.526 251.378L212.345 243.376C213.31 242.046 215.036 241.506 216.592 242.048L240.465 250.359C242.017 250.899 243.03 252.392 242.959 254.034Z" fill="#1EDB84"/>
<path d="M232.999 209.948C233.893 211.798 235.454 213.103 237.256 213.73C239.058 214.358 241.098 214.301 242.944 213.405L264.095 203.18L261.053 212.06C260.39 213.993 261.416 216.1 263.345 216.771L263.363 216.777C265.304 217.443 267.414 216.408 268.08 214.467L274.003 197.172C274.662 195.249 273.645 193.144 271.728 192.467L254.493 186.369L254.476 186.363C252.547 185.691 250.435 186.701 249.754 188.632C249.07 190.566 250.081 192.688 252.016 193.371L260.857 196.498L239.686 206.72L228.512 183.611C227.618 181.761 225.404 180.99 223.554 181.885C221.704 182.779 220.933 184.993 221.827 186.843L232.999 209.948Z" fill="#1EDB84"/>
<defs>
<filter id="filter0_d_15_3" x="0.502869" y="0.5" width="466.15" height="466.15" filterUnits="userSpaceOnUse" color-interpolation-filters="sRGB">
<feFlood flood-opacity="0" result="BackgroundImageFix"/>
<feColorMatrix in="SourceAlpha" type="matrix" values="0 0 0 0 0 0 0 0 0 0 0 0 0 0 0 0 0 0 127 0" result="hardAlpha"/>
<feOffset dy="4"/>
<feGaussianBlur stdDeviation="41.75"/>
<feComposite in2="hardAlpha" operator="out"/>
<feColorMatrix type="matrix" values="0 0 0 0 0 0 0 0 0 0.15 0 0 0 0 0.0809524 0 0 0 0.14 0"/>
<feBlend mode="luminosity" in2="BackgroundImageFix" result="effect1_dropShadow_15_3"/>
<feBlend mode="normal" in="SourceGraphic" in2="effect1_dropShadow_15_3" result="shape"/>
</filter>
<clipPath id="clip0_15_3">
<rect x="159.938" y="80" width="235.778" height="235.778" rx="49.0594" transform="rotate(18.7875 159.938 80)" fill="white"/>
</clipPath>
</defs>
</svg>
