<svg width="95" height="95" viewBox="0 0 95 95" fill="none" xmlns="http://www.w3.org/2000/svg">
<path d="M47.5461 47.4173L44.4697 46.0456L31.9394 40.4588C31.8763 40.4306 31.839 40.4276 31.8268 40.4273C31.8194 40.427 31.8149 40.4276 31.8129 40.428C31.8108 40.4283 31.8098 40.4287 31.8093 40.4289C31.8088 40.4291 31.8078 40.4295 31.806 40.4306C31.8043 40.4317 31.8006 40.4343 31.7952 40.4394C31.7864 40.4478 31.7606 40.4749 31.7325 40.5381L28.656 39.1663L31.7325 40.5381C31.7043 40.6012 31.7014 40.6384 31.701 40.6506C31.7008 40.6581 31.7014 40.6625 31.7017 40.6645C31.7021 40.6666 31.7024 40.6677 31.7026 40.6682C31.7027 40.6684 31.7029 40.6688 31.7031 40.6694C31.7034 40.6699 31.7038 40.6706 31.7043 40.6715C31.7055 40.6732 31.708 40.6769 31.7131 40.6823C31.7215 40.6911 31.7486 40.7168 31.8118 40.745L44.3421 46.3319L47.4185 47.7036L46.0468 50.78L40.4599 63.3103C40.4318 63.3734 40.4288 63.4107 40.4285 63.4229C40.4283 63.4269 40.4284 63.43 40.4286 63.4324C40.4288 63.4344 40.429 63.4359 40.4291 63.4368C40.4293 63.4379 40.4295 63.4387 40.4297 63.4392C40.4298 63.4398 40.43 63.4402 40.4301 63.4404C40.4302 63.4409 40.4307 63.4419 40.4318 63.4437C40.4324 63.4447 40.4335 63.4463 40.4352 63.4485C40.4366 63.4502 40.4383 63.4522 40.4406 63.4545C40.449 63.4634 40.4761 63.4891 40.5392 63.5172C40.5454 63.52 40.5496 63.5215 40.552 63.5223L47.5461 47.4173ZM47.5461 47.4173L48.9179 44.3409M47.5461 47.4173L48.9179 44.3409M48.9179 44.3409L54.5047 31.8106C54.5329 31.7475 54.5586 31.7204 54.5674 31.712C54.5728 31.7068 54.5765 31.7043 54.5783 31.7032C54.58 31.702 54.5811 31.7016 54.5816 31.7014C54.582 31.7012 54.5831 31.7009 54.5852 31.7005C54.5872 31.7002 54.5917 31.6996 54.5991 31.6998C54.6113 31.7002 54.6485 31.7032 54.7117 31.7313C54.7748 31.7595 54.8019 31.7852 54.8103 31.794C54.8127 31.7965 54.8146 31.7987 54.816 31.8005C54.8175 31.8024 54.8185 31.8039 54.8191 31.8048C54.8202 31.8066 54.8207 31.8076 54.8208 31.8081C54.821 31.8086 54.8214 31.8096 54.8218 31.8117C54.8221 31.8138 54.8227 31.8182 54.8224 31.8257C54.8221 31.8378 54.8191 31.8751 54.791 31.9382L49.2041 44.4685L47.8324 47.545M48.9179 44.3409L47.8324 47.545M47.8324 47.545L50.9088 48.9167L47.8324 47.545ZM47.7048 47.8312L50.7812 49.2029L63.3115 54.7898C63.3176 54.7925 63.3218 54.794 63.3243 54.7948L63.3282 54.796L47.7048 47.8312ZM47.7048 47.8312L46.333 50.9077M47.7048 47.8312L46.333 50.9077M46.333 50.9077L40.7462 63.4379M46.333 50.9077L40.7462 63.4379M40.7462 63.4379C40.7434 63.4441 40.7413 63.448 40.74 63.4502M40.7462 63.4379L40.74 63.4502M40.74 63.4502L40.7379 63.4537L40.74 63.4502ZM40.6513 63.4999C40.7152 63.4754 40.7368 63.4547 40.7371 63.4545L40.6513 63.4999ZM40.6513 63.4999C40.5874 63.5244 40.5574 63.5235 40.5571 63.5235M40.6513 63.4999L40.5571 63.5235M40.5571 63.5235L40.5562 63.5235M40.5571 63.5235L40.5562 63.5235M40.5562 63.5235L40.556 63.5234M40.5562 63.5235L40.556 63.5234M40.556 63.5234C40.556 63.5234 40.556 63.5234 40.556 63.5234L40.556 63.5234ZM63.3286 54.796C63.3285 54.796 63.3284 54.796 63.3283 54.796L63.5093 54.7271C63.5091 54.7273 63.4874 54.748 63.4235 54.7725C63.3596 54.797 63.3296 54.796 63.3293 54.796L63.3286 54.796ZM60.2827 80.6503C78.5014 73.668 87.6338 53.1858 80.6515 34.9671C73.6692 16.7484 53.1869 7.61591 34.9682 14.5982C16.7495 21.5805 7.61709 42.0628 14.5994 60.2815C21.5817 78.5002 42.064 87.6326 60.2827 80.6503Z" fill="white" stroke="white" stroke-width="6.73684"/>
<path d="M59.0772 77.505C75.5588 71.1884 83.8227 52.6541 77.5062 36.1725C71.1896 19.6909 52.6553 11.427 36.1737 17.7436C19.6921 24.0601 11.4282 42.5945 17.7447 59.076C24.0613 75.5576 42.5956 83.8215 59.0772 77.505ZM30.4401 43.8214C28.6127 43.0067 27.8413 40.9937 28.656 39.1663C29.4708 37.339 31.4838 36.5675 33.3111 37.3823L45.8414 42.9692L51.4283 30.4389C52.243 28.6116 54.256 27.8401 56.0834 28.6548C57.9107 29.4696 58.6822 31.4826 57.8674 33.3099L52.2806 45.8402L64.8108 51.4271C66.6381 52.2418 67.4096 54.2549 66.5949 56.0822C66.2069 56.9523 65.5097 57.5803 64.629 57.9178C63.7483 58.2553 62.8099 58.2542 61.9398 57.8663L49.4095 52.2794L43.8226 64.8096C43.4347 65.6798 42.7374 66.3077 41.8567 66.6453C40.976 66.9828 40.0377 66.9817 39.1675 66.5937C37.3402 65.7789 36.5687 63.7659 37.3835 61.9386L42.9703 49.4083L30.4401 43.8214Z" fill="white"/>
<path d="M61.7292 84.4247C82.0324 76.6435 92.2071 53.8238 84.4259 33.5205C76.6447 13.2173 53.8249 3.0426 33.5217 10.8238C13.2185 18.605 3.04378 41.4248 10.825 61.728C18.6062 82.0313 41.426 92.2059 61.7292 84.4247Z" stroke="white" stroke-opacity="0.65" stroke-width="14.8211"/>
<path d="M59.0772 77.505C75.5588 71.1884 83.8227 52.6541 77.5062 36.1725C71.1896 19.6909 52.6553 11.427 36.1737 17.7436C19.6921 24.0601 11.4282 42.5945 17.7447 59.076C24.0613 75.5576 42.5956 83.8215 59.0772 77.505ZM30.4401 43.8214C28.6127 43.0067 27.8413 40.9937 28.656 39.1663C29.4708 37.339 31.4838 36.5675 33.3111 37.3823L45.8414 42.9692L51.4283 30.4389C52.243 28.6116 54.256 27.8401 56.0834 28.6548C57.9107 29.4696 58.6822 31.4826 57.8674 33.3099L52.2806 45.8402L64.8108 51.4271C66.6381 52.2418 67.4096 54.2549 66.5949 56.0822C66.2069 56.9523 65.5097 57.5803 64.629 57.9178C63.7483 58.2553 62.8099 58.2542 61.9398 57.8663L49.4095 52.2794L43.8226 64.8096C43.4347 65.6798 42.7374 66.3077 41.8567 66.6453C40.976 66.9828 40.0377 66.9817 39.1675 66.5937C37.3402 65.7789 36.5687 63.7659 37.3835 61.9386L42.9703 49.4083L30.4401 43.8214Z" fill="white"/>
<circle cx="47.2701" cy="46.6905" r="29" transform="rotate(-20.9693 47.2701 46.6905)" fill="white"/>
<path fill-rule="evenodd" clip-rule="evenodd" d="M35.8145 16.8095C52.8329 10.2872 71.9163 18.796 78.4386 35.8144C84.9609 52.8328 76.4522 71.9162 59.4337 78.4385C42.4153 84.9608 23.3319 76.452 16.8096 59.4336C10.2873 42.4152 18.7961 23.3318 35.8145 16.8095ZM37.5521 41.9078C37.4812 40.525 37.9313 39.1165 38.7862 37.8948C40.849 34.9562 44.9475 33.6495 48.2743 34.9335C52.5647 36.5863 53.4261 41.5815 50.1189 44.9756C46.9976 48.1818 46.0503 52.7629 47.6504 56.9379C48.2619 58.5335 50.0494 59.3305 51.645 58.719C53.2407 58.1075 54.0366 56.3174 53.4261 54.7244C52.6722 52.7573 53.0712 50.7923 54.5378 49.2883C57.9304 45.804 59.3031 40.697 57.5406 36.0982C54.9683 29.3864 47.0967 26.64 40.3399 29.2296C34.9069 31.3118 31.0866 36.4989 31.3804 42.2272C31.4691 43.9303 32.9219 45.2395 34.6223 45.1518C36.3253 45.0632 37.6345 43.6104 37.5459 41.9074L37.5521 41.9078ZM50.9598 64.9782C51.5794 66.5947 53.3658 67.389 54.9615 66.7775C56.5597 66.165 57.3541 64.3785 56.7425 62.7829C56.123 61.1663 54.3366 60.372 52.7409 60.9835C51.1427 61.5961 50.3483 63.3825 50.9598 64.9782Z" fill="#4F4F4F"/>
</svg>
