<svg width="95" height="95" viewBox="0 0 95 95" fill="none" xmlns="http://www.w3.org/2000/svg">
<path d="M47.709 47.4206L46.5119 44.2721L41.6362 31.4484C41.6116 31.3838 41.5875 31.3553 41.5791 31.3464C41.574 31.3409 41.5705 31.3382 41.5688 31.337C41.5671 31.3358 41.5661 31.3353 41.5656 31.3351C41.5652 31.3349 41.5641 31.3344 41.5621 31.334C41.5601 31.3335 41.5556 31.3327 41.5482 31.3325C41.536 31.3322 41.4987 31.333 41.4341 31.3576L40.2369 28.2091L41.434 31.3576C41.3694 31.3822 41.3409 31.4063 41.332 31.4147C41.3266 31.4198 41.3239 31.4233 41.3227 31.425C41.3214 31.4267 41.3209 31.4277 41.3207 31.4282C41.3206 31.4284 41.3205 31.4288 41.3203 31.4294C41.3201 31.43 41.3199 31.4307 41.3196 31.4317C41.3192 31.4337 41.3183 31.4382 41.3181 31.4456C41.3178 31.4578 41.3187 31.4951 41.3433 31.5598L46.219 44.3835L47.4161 47.532L44.2676 48.7291L31.4438 53.6048C31.3792 53.6294 31.3507 53.6536 31.3418 53.6619C31.3389 53.6646 31.3367 53.6669 31.3352 53.6687C31.3339 53.6703 31.333 53.6714 31.3324 53.6722C31.3318 53.6731 31.3314 53.6738 31.3311 53.6743C31.3308 53.6748 31.3306 53.6752 31.3305 53.6754C31.3303 53.6759 31.3299 53.6769 31.3294 53.679C31.3291 53.6801 31.3288 53.682 31.3284 53.6848C31.3282 53.6869 31.328 53.6896 31.3279 53.6928C31.3276 53.705 31.3285 53.7424 31.353 53.807C31.3554 53.8132 31.3573 53.8173 31.3585 53.8196L47.709 47.4206ZM47.709 47.4206L50.8575 46.2235M47.709 47.4206L50.8575 46.2235M50.8575 46.2235L63.6813 41.3478C63.7459 41.3233 63.7832 41.3224 63.7954 41.3227C63.8029 41.3229 63.8073 41.3237 63.8093 41.3242C63.8114 41.3247 63.8124 41.3251 63.8129 41.3253C63.8133 41.3255 63.8143 41.326 63.816 41.3272C63.8177 41.3284 63.8213 41.3312 63.8264 41.3366C63.8347 41.3455 63.8589 41.374 63.8834 41.4386C63.908 41.5032 63.9089 41.5406 63.9086 41.5528C63.9085 41.5563 63.9082 41.5591 63.908 41.5613C63.9077 41.5638 63.9073 41.5656 63.9071 41.5666C63.9066 41.5687 63.9062 41.5697 63.906 41.5702C63.9058 41.5707 63.9053 41.5717 63.904 41.5734C63.9028 41.5751 63.9001 41.5786 63.8947 41.5837C63.8858 41.592 63.8573 41.6162 63.7927 41.6408L50.9689 46.5165L47.8204 47.7136M50.8575 46.2235L47.8204 47.7136M47.8204 47.7136L49.0175 50.8621L47.8204 47.7136ZM47.5275 47.8249L48.7246 50.9735L53.6003 63.7972C53.6026 63.8035 53.6046 63.8075 53.6057 63.8098L53.6077 63.8135L47.5275 47.8249ZM47.5275 47.8249L44.3789 49.022M47.5275 47.8249L44.3789 49.022M44.3789 49.022L31.5552 53.8978M44.3789 49.022L31.5552 53.8978M31.5552 53.8978C31.5489 53.9001 31.5446 53.9014 31.5422 53.9021M31.5552 53.8978L31.5422 53.9021M31.5422 53.9021L31.5382 53.903L31.5422 53.9021ZM31.4443 53.8742C31.5067 53.9022 31.5367 53.903 31.537 53.903L31.4443 53.8742ZM31.4443 53.8742C31.3819 53.8462 31.3614 53.8243 31.3612 53.824M31.4443 53.8742L31.3612 53.824M31.3612 53.824L31.3606 53.8234M31.3612 53.824L31.3606 53.8234M31.3606 53.8234L31.3605 53.8233M31.3606 53.8234L31.3605 53.8233M31.3605 53.8233C31.3605 53.8233 31.3605 53.8232 31.3604 53.8232L31.3605 53.8233ZM53.6079 63.8138C53.6078 63.8137 53.6078 63.8136 53.6077 63.8135L53.7843 63.8932C53.784 63.8932 53.754 63.8925 53.6915 63.8644C53.6291 63.8364 53.6086 63.8145 53.6084 63.8143L53.6079 63.8138ZM33.1296 79.8874C50.9283 87.88 71.8903 79.91 79.8829 62.1114C87.8754 44.3127 79.9055 23.3507 62.1068 15.3582C44.3082 7.36559 23.3462 15.3355 15.3536 33.1342C7.36103 50.9329 15.331 71.8948 33.1296 79.8874Z" fill="white" stroke="white" stroke-width="6.73684"/>
<path d="M34.5095 76.8146C50.6111 84.0451 69.5795 76.8331 76.81 60.7315C84.0405 44.6299 76.8285 25.6615 60.727 18.431C44.6254 11.2005 25.6569 18.4125 18.4264 34.5141C11.1959 50.6157 18.4079 69.5841 34.5095 76.8146ZM38.1947 32.7569C37.4837 30.8867 38.3668 28.9201 40.2369 28.2091C42.1071 27.498 44.0737 28.3812 44.7847 30.2513L49.6604 43.075L62.4842 38.1993C64.3543 37.4883 66.3209 38.3714 67.032 40.2415C67.743 42.1116 66.8599 44.0782 64.9898 44.7893L52.166 49.665L57.0417 62.4887C57.7528 64.3589 56.8697 66.3255 54.9995 67.0365C54.109 67.3751 53.1721 67.3236 52.3117 66.9373C51.4513 66.5509 50.7903 65.8849 50.4517 64.9943L45.576 52.1706L32.7523 57.0463C31.8618 57.3849 30.9248 57.3334 30.0644 56.947C29.2041 56.5607 28.5431 55.8946 28.2045 55.0041C27.4935 53.134 28.3766 51.1673 30.2467 50.4563L43.0705 45.5806L38.1947 32.7569Z" fill="white"/>
<path d="M31.4738 83.5748C51.3089 92.4819 74.6632 83.6024 83.5702 63.7672C92.4773 43.9321 83.5978 20.5779 63.7627 11.6708C43.9275 2.76371 20.5733 11.6432 11.6662 31.4784C2.75915 51.3135 11.6387 74.6677 31.4738 83.5748Z" stroke="white" stroke-opacity="0.65" stroke-width="14.8211"/>
<path d="M34.5095 76.8146C50.6111 84.0451 69.5795 76.8331 76.81 60.7315C84.0405 44.6299 76.8285 25.6615 60.727 18.431C44.6254 11.2005 25.6569 18.4125 18.4264 34.5141C11.1959 50.6157 18.4079 69.5841 34.5095 76.8146ZM38.1947 32.7569C37.4837 30.8867 38.3668 28.9201 40.2369 28.2091C42.1071 27.498 44.0737 28.3812 44.7847 30.2513L49.6604 43.075L62.4842 38.1993C64.3543 37.4883 66.3209 38.3714 67.032 40.2415C67.743 42.1116 66.8599 44.0782 64.9898 44.7893L52.166 49.665L57.0417 62.4887C57.7528 64.3589 56.8697 66.3255 54.9995 67.0365C54.109 67.3751 53.1721 67.3236 52.3117 66.9373C51.4513 66.5509 50.7903 65.8849 50.4517 64.9943L45.576 52.1706L32.7523 57.0463C31.8618 57.3849 30.9248 57.3334 30.0644 56.947C29.2041 56.5607 28.5431 55.8946 28.2045 55.0041C27.4935 53.134 28.3766 51.1673 30.2467 50.4563L43.0705 45.5806L38.1947 32.7569Z" fill="white"/>
<circle cx="48.0284" cy="46.7108" r="29" transform="rotate(24.1827 48.0284 46.7108)" fill="white"/>
<path fill-rule="evenodd" clip-rule="evenodd" d="M61.1392 17.5184C77.7652 24.9844 85.1909 44.5147 77.7249 61.1408C70.2589 77.7668 50.7285 85.1925 34.1025 77.7265C17.4764 70.2605 10.0508 50.7301 17.5168 34.104C24.9828 17.478 44.5132 10.0524 61.1392 17.5184ZM44.5704 36.4504C45.5008 35.4249 46.8169 34.7507 48.2859 34.4952C51.824 33.8853 55.6408 35.8696 57.0767 39.1337C58.9306 43.3411 55.9966 47.4746 51.2579 47.5234C46.7835 47.5716 42.8676 50.1307 41.036 54.2095C40.336 55.7683 41.0315 57.5976 42.5904 58.2977C44.1492 58.9977 45.9797 58.2996 46.6785 56.7433C47.5415 54.8216 49.2159 53.7187 51.3166 53.6978C56.1795 53.6459 60.7683 51.0174 62.7858 46.5247C65.7303 39.9676 62.1261 32.45 55.5251 29.4858C50.2173 27.1023 43.8456 28.052 39.9915 32.3C38.8467 33.5639 38.943 35.5172 40.2043 36.6609C41.4682 37.8058 43.4215 37.7095 44.5663 36.4456L44.5704 36.4504ZM37.6695 62.226C36.9603 63.8053 37.657 65.6321 39.2159 66.3321C40.7773 67.0332 42.604 66.3365 43.304 64.7777C44.0133 63.1984 43.3166 61.3717 41.7577 60.6717C40.1963 59.9705 38.3695 60.6672 37.6695 62.226Z" fill="#4F4F4F"/>
</svg>
