<svg width="442" height="442" viewBox="0 0 442 442" fill="none" xmlns="http://www.w3.org/2000/svg">
<g filter="url(#filter0_d_71_410)">
<rect x="147.395" y="66" width="236.682" height="236.682" rx="49.2475" transform="rotate(19.0862 147.395 66)" fill="white"/>
<path d="M264.847 167.626L265.321 166.607L265.319 166.606L258.775 163.564L257.756 163.09L257.756 163.091L257.043 162.759L251.967 160.399L251.259 160.07L251.259 160.069L250.24 159.596L243.695 156.553C243.287 156.363 242.847 156.255 242.398 156.234C241.949 156.213 241.501 156.281 241.078 156.432C240.655 156.584 240.266 156.818 239.934 157.121C239.602 157.423 239.333 157.789 239.144 158.196L232.23 173.068C232.132 173.274 232.055 173.489 232 173.711L231.998 173.718L231.998 173.718C231.974 173.822 231.954 173.924 231.94 174.023L231.887 174.392L232.065 174.72C232.244 175.051 232.4 175.393 232.531 175.745L232.531 175.745C232.629 176.01 232.714 176.28 232.784 176.554L233.531 176.363L233.139 177.129C233.216 177.195 233.289 177.249 233.347 177.292L233.355 177.297L233.362 177.303C233.533 177.421 233.714 177.525 233.903 177.612L255.53 187.666C256.352 188.049 257.293 188.093 258.147 187.787L257.768 186.732L258.147 187.787C259.001 187.48 259.698 186.846 260.08 186.023L266.996 171.147L266.997 171.146L265.978 170.672C266.105 170.4 266.177 170.105 266.189 169.805C266.201 169.504 266.153 169.204 266.048 168.92C265.943 168.637 265.783 168.377 265.577 168.155C265.371 167.933 265.122 167.753 264.847 167.626ZM264.847 167.626L259.32 165.056M264.847 167.626L259.32 165.056M233.052 174.184C233.257 174.561 233.435 174.952 233.584 175.354C233.651 175.534 233.713 175.717 233.768 175.901L233.052 174.184ZM233.052 174.184C233.062 174.117 233.075 174.048 233.091 173.98L233.052 174.184ZM259.32 165.056L258.301 164.583L257.828 165.602L255.448 170.719C255.396 170.831 255.322 170.932 255.23 171.016C255.139 171.099 255.031 171.164 254.914 171.206C254.797 171.248 254.672 171.267 254.547 171.261C254.422 171.255 254.3 171.225 254.186 171.172L259.32 165.056ZM242.346 157.357C242.044 157.343 241.742 157.388 241.458 157.49L249.293 161.634L249.767 160.615L248.748 160.141L243.221 157.572C242.946 157.444 242.649 157.371 242.346 157.357Z" fill="#1EDB84" stroke="white" stroke-width="2.24752"/>
<path fill-rule="evenodd" clip-rule="evenodd" d="M231.903 227.422L221.733 226.801L222.385 216.114L232.555 216.735L231.903 227.422ZM191.022 169.497L174.738 168.502L175.035 163.633L201.168 165.228L200.082 183.007C200.081 183.033 200.079 183.059 200.077 183.087L198.393 210.676C198.39 210.701 198.389 210.727 198.388 210.753L196.109 248.09C193.602 246.891 190.834 246.343 188.06 246.496L192.649 171.335C192.675 170.899 192.536 170.469 192.26 170.131C191.983 169.793 191.588 169.572 191.156 169.511L191.112 169.509L191.022 169.503L191.022 169.497ZM205.389 263.81C205.519 261.537 205.172 259.262 204.372 257.13L264.945 260.828L264.542 267.422L205.389 263.81ZM202.387 253.398C202.487 253.433 202.588 253.462 202.688 253.488C202.939 253.548 203.196 253.586 203.454 253.6L246.787 256.246C247.9 256.314 248.994 255.937 249.829 255.199C250.664 254.46 251.171 253.42 251.239 252.308L253.078 222.197C253.113 221.646 253.039 221.093 252.859 220.571C252.68 220.048 252.399 219.566 252.033 219.153C251.667 218.739 251.223 218.402 250.726 218.16C250.229 217.919 249.689 217.778 249.137 217.746L236.024 216.945L235.265 229.365C235.251 229.593 235.193 229.815 235.093 230.02C234.993 230.224 234.854 230.408 234.683 230.558C234.512 230.709 234.314 230.825 234.098 230.899C233.883 230.973 233.655 231.004 233.427 230.99L219.792 230.157C219.564 230.144 219.342 230.085 219.137 229.986C218.932 229.886 218.749 229.747 218.598 229.576C218.447 229.406 218.332 229.207 218.257 228.992C218.183 228.776 218.152 228.549 218.166 228.321L218.925 215.901L205.811 215.101C205.26 215.067 204.708 215.142 204.186 215.322C203.664 215.502 203.182 215.782 202.769 216.148C202.355 216.514 202.018 216.957 201.776 217.453C201.534 217.949 201.392 218.488 201.359 219.039L199.52 249.15C199.5 249.432 199.508 249.716 199.545 249.996C199.562 250.122 199.586 250.249 199.614 250.37C200.212 250.878 200.773 251.427 201.293 252.015C201.684 252.456 202.051 252.918 202.394 253.397L202.387 253.398ZM242.451 245.337L232.586 244.735C232.135 244.695 231.718 244.481 231.424 244.139C231.129 243.796 230.979 243.352 231.007 242.901C231.034 242.45 231.237 242.028 231.571 241.724C231.905 241.42 232.345 241.258 232.797 241.273L242.662 241.875C242.894 241.883 243.122 241.937 243.333 242.035C243.543 242.132 243.732 242.27 243.888 242.442C244.044 242.613 244.164 242.814 244.241 243.033C244.318 243.252 244.351 243.484 244.337 243.715C244.322 243.946 244.262 244.173 244.159 244.38C244.056 244.588 243.912 244.773 243.736 244.924C243.561 245.075 243.356 245.19 243.136 245.261C242.915 245.332 242.682 245.358 242.451 245.337ZM242.09 251.25L232.225 250.648C231.765 250.62 231.336 250.411 231.031 250.067C230.727 249.722 230.571 249.271 230.599 248.812C230.627 248.353 230.836 247.924 231.181 247.62C231.525 247.315 231.977 247.16 232.436 247.188L242.301 247.79C242.76 247.818 243.189 248.027 243.494 248.371C243.799 248.716 243.955 249.167 243.927 249.626C243.899 250.085 243.689 250.514 243.345 250.818C243 251.123 242.549 251.278 242.09 251.25ZM184.55 247.079L186.155 220.804L177.935 231.127L176.658 252.043C178.757 249.665 181.497 247.941 184.55 247.079ZM176.181 260.798C176.607 258.211 177.807 255.814 179.623 253.923C181.439 252.032 183.786 250.736 186.354 250.205C186.471 250.195 186.586 250.172 186.699 250.138C187.713 249.959 188.745 249.901 189.774 249.964C192.196 250.11 194.529 250.936 196.503 252.348C196.59 252.424 196.683 252.492 196.783 252.551C197.477 253.076 198.118 253.667 198.697 254.318C199.147 254.828 199.556 255.372 199.921 255.946C199.981 256.074 200.056 256.195 200.144 256.305C201.177 258.05 201.786 260.012 201.923 262.035C202.059 264.058 201.719 266.085 200.929 267.952C200.14 269.82 198.923 271.476 197.377 272.788C195.831 274.101 193.998 275.032 192.026 275.507C190.055 275.983 187.999 275.99 186.024 275.527C184.049 275.064 182.21 274.145 180.655 272.843C179.101 271.541 177.873 269.892 177.071 268.03C176.269 266.167 175.916 264.143 176.039 262.119C176.064 261.679 176.111 261.24 176.181 260.804L176.181 260.798ZM201.854 210.909L203.541 183.275C203.547 183.22 203.573 183.169 203.613 183.132C203.664 183.089 203.729 183.068 203.795 183.073L216.204 183.831L215.66 192.739C215.632 193.198 215.787 193.65 216.092 193.994C216.397 194.339 216.827 194.548 217.286 194.576L227.86 195.222C228.087 195.236 228.315 195.205 228.531 195.131C228.746 195.056 228.945 194.94 229.115 194.79C229.286 194.639 229.425 194.455 229.525 194.251C229.624 194.046 229.683 193.823 229.697 193.596L230.241 184.683L242.649 185.44C242.7 185.442 242.749 185.46 242.789 185.491L242.815 185.52C242.836 185.544 242.852 185.571 242.862 185.601C242.872 185.631 242.877 185.663 242.874 185.695L241.189 213.289C241.188 213.32 241.18 213.351 241.166 213.379C241.153 213.408 241.133 213.433 241.11 213.454C241.059 213.493 240.995 213.513 240.931 213.508L202.082 211.136C202.016 211.133 201.954 211.104 201.908 211.056C201.873 211.014 201.854 210.96 201.854 210.905L201.854 210.909ZM234.936 206.193C235.395 206.221 235.847 206.065 236.191 205.761C236.536 205.456 236.745 205.027 236.773 204.568C236.801 204.109 236.645 203.658 236.341 203.314C236.036 202.969 235.607 202.76 235.147 202.732L225.282 202.13C224.823 202.102 224.372 202.257 224.027 202.562C223.683 202.867 223.473 203.296 223.445 203.755C223.417 204.213 223.573 204.665 223.878 205.009C224.182 205.353 224.612 205.562 225.071 205.59L234.936 206.193ZM226.341 191.648L226.779 184.471L219.667 184.037L219.229 191.208L226.341 191.648Z" fill="#1EDB84"/>
<mask id="path-4-outside-1_71_410" maskUnits="userSpaceOnUse" x="164.699" y="159.437" width="110.061" height="125.056" fill="black">
<rect fill="white" x="164.699" y="159.437" width="110.061" height="125.056"/>
<path fill-rule="evenodd" clip-rule="evenodd" d="M231.903 227.422L221.733 226.801L222.385 216.114L232.555 216.735L231.903 227.422ZM191.022 169.497L174.738 168.502L175.035 163.633L201.168 165.228L200.082 183.007C200.081 183.033 200.079 183.059 200.077 183.087L198.393 210.676C198.39 210.701 198.389 210.727 198.388 210.753L196.109 248.09C193.602 246.891 190.834 246.343 188.06 246.496L192.649 171.335C192.675 170.899 192.536 170.469 192.26 170.131C191.983 169.793 191.588 169.572 191.156 169.511L191.112 169.509L191.022 169.503L191.022 169.497ZM205.389 263.81C205.519 261.537 205.172 259.262 204.372 257.13L264.945 260.828L264.542 267.422L205.389 263.81ZM202.387 253.398C202.487 253.433 202.588 253.462 202.688 253.488C202.939 253.548 203.196 253.586 203.454 253.6L246.787 256.246C247.9 256.314 248.994 255.937 249.829 255.199C250.664 254.46 251.171 253.42 251.239 252.308L253.078 222.197C253.113 221.646 253.039 221.093 252.859 220.571C252.68 220.048 252.399 219.566 252.033 219.153C251.667 218.739 251.223 218.402 250.726 218.16C250.229 217.919 249.689 217.778 249.137 217.746L236.024 216.945L235.265 229.365C235.251 229.593 235.193 229.815 235.093 230.02C234.993 230.224 234.854 230.408 234.683 230.558C234.512 230.709 234.314 230.825 234.098 230.899C233.883 230.973 233.655 231.004 233.427 230.99L219.792 230.157C219.564 230.144 219.342 230.085 219.137 229.986C218.932 229.886 218.749 229.747 218.598 229.576C218.447 229.406 218.332 229.207 218.257 228.992C218.183 228.776 218.152 228.549 218.166 228.321L218.925 215.901L205.811 215.101C205.26 215.067 204.708 215.142 204.186 215.322C203.664 215.502 203.182 215.782 202.769 216.148C202.355 216.514 202.018 216.957 201.776 217.453C201.534 217.949 201.392 218.488 201.359 219.039L199.52 249.15C199.5 249.432 199.508 249.716 199.545 249.996C199.562 250.122 199.586 250.249 199.614 250.37C200.212 250.878 200.773 251.427 201.293 252.015C201.684 252.456 202.051 252.918 202.394 253.397L202.387 253.398ZM242.451 245.337L232.586 244.735C232.135 244.695 231.718 244.481 231.424 244.139C231.129 243.796 230.979 243.352 231.007 242.901C231.034 242.45 231.237 242.028 231.571 241.724C231.905 241.42 232.345 241.258 232.797 241.273L242.662 241.875C242.894 241.883 243.122 241.937 243.333 242.035C243.543 242.132 243.732 242.27 243.888 242.442C244.044 242.613 244.164 242.814 244.241 243.033C244.318 243.252 244.351 243.484 244.337 243.715C244.322 243.946 244.262 244.173 244.159 244.38C244.056 244.588 243.912 244.773 243.736 244.924C243.561 245.075 243.356 245.19 243.136 245.261C242.915 245.332 242.682 245.358 242.451 245.337ZM242.09 251.25L232.225 250.648C231.765 250.62 231.336 250.411 231.031 250.067C230.727 249.722 230.571 249.271 230.599 248.812C230.627 248.353 230.836 247.924 231.181 247.62C231.525 247.315 231.977 247.16 232.436 247.188L242.301 247.79C242.76 247.818 243.189 248.027 243.494 248.371C243.799 248.716 243.955 249.167 243.927 249.626C243.899 250.085 243.689 250.514 243.345 250.818C243 251.123 242.549 251.278 242.09 251.25ZM184.55 247.079L186.155 220.804L177.935 231.127L176.658 252.043C178.757 249.665 181.497 247.941 184.55 247.079ZM176.181 260.798C176.607 258.211 177.807 255.814 179.623 253.923C181.439 252.032 183.786 250.736 186.354 250.205C186.471 250.195 186.586 250.172 186.699 250.138C187.713 249.959 188.745 249.901 189.774 249.964C192.196 250.11 194.529 250.936 196.503 252.348C196.59 252.424 196.683 252.492 196.783 252.551C197.477 253.076 198.118 253.667 198.697 254.318C199.147 254.828 199.556 255.372 199.921 255.946C199.981 256.074 200.056 256.195 200.144 256.305C201.177 258.05 201.786 260.012 201.923 262.035C202.059 264.058 201.719 266.085 200.929 267.952C200.14 269.82 198.923 271.476 197.377 272.788C195.831 274.101 193.998 275.032 192.026 275.507C190.055 275.983 187.999 275.99 186.024 275.527C184.049 275.064 182.21 274.145 180.655 272.843C179.101 271.541 177.873 269.892 177.071 268.03C176.269 266.167 175.916 264.143 176.039 262.119C176.064 261.679 176.111 261.24 176.181 260.804L176.181 260.798ZM201.854 210.909L203.541 183.275C203.547 183.22 203.573 183.169 203.613 183.132C203.664 183.089 203.729 183.068 203.795 183.073L216.204 183.831L215.66 192.739C215.632 193.198 215.787 193.65 216.092 193.994C216.397 194.339 216.827 194.548 217.286 194.576L227.86 195.222C228.087 195.236 228.315 195.205 228.531 195.131C228.746 195.056 228.945 194.94 229.115 194.79C229.286 194.639 229.425 194.455 229.525 194.251C229.624 194.046 229.683 193.823 229.697 193.596L230.241 184.683L242.649 185.44C242.7 185.442 242.749 185.46 242.789 185.491L242.815 185.52C242.836 185.544 242.852 185.571 242.862 185.601C242.872 185.631 242.877 185.663 242.874 185.695L241.189 213.289C241.188 213.32 241.18 213.351 241.166 213.379C241.153 213.408 241.133 213.433 241.11 213.454C241.059 213.493 240.995 213.513 240.931 213.508L202.082 211.136C202.016 211.133 201.954 211.104 201.908 211.056C201.873 211.014 201.854 210.96 201.854 210.905L201.854 210.909ZM234.936 206.193C235.395 206.221 235.847 206.065 236.191 205.761C236.536 205.456 236.745 205.027 236.773 204.568C236.801 204.109 236.645 203.658 236.341 203.314C236.036 202.969 235.607 202.76 235.147 202.732L225.282 202.13C224.823 202.102 224.372 202.257 224.027 202.562C223.683 202.867 223.473 203.296 223.445 203.755C223.417 204.213 223.573 204.665 223.878 205.009C224.182 205.353 224.612 205.562 225.071 205.59L234.936 206.193ZM226.341 191.648L226.779 184.471L219.667 184.037L219.229 191.208L226.341 191.648Z"/>
</mask>
<path fill-rule="evenodd" clip-rule="evenodd" d="M231.903 227.422L221.733 226.801L222.385 216.114L232.555 216.735L231.903 227.422ZM191.022 169.497L174.738 168.502L175.035 163.633L201.168 165.228L200.082 183.007C200.081 183.033 200.079 183.059 200.077 183.087L198.393 210.676C198.39 210.701 198.389 210.727 198.388 210.753L196.109 248.09C193.602 246.891 190.834 246.343 188.06 246.496L192.649 171.335C192.675 170.899 192.536 170.469 192.26 170.131C191.983 169.793 191.588 169.572 191.156 169.511L191.112 169.509L191.022 169.503L191.022 169.497ZM205.389 263.81C205.519 261.537 205.172 259.262 204.372 257.13L264.945 260.828L264.542 267.422L205.389 263.81ZM202.387 253.398C202.487 253.433 202.588 253.462 202.688 253.488C202.939 253.548 203.196 253.586 203.454 253.6L246.787 256.246C247.9 256.314 248.994 255.937 249.829 255.199C250.664 254.46 251.171 253.42 251.239 252.308L253.078 222.197C253.113 221.646 253.039 221.093 252.859 220.571C252.68 220.048 252.399 219.566 252.033 219.153C251.667 218.739 251.223 218.402 250.726 218.16C250.229 217.919 249.689 217.778 249.137 217.746L236.024 216.945L235.265 229.365C235.251 229.593 235.193 229.815 235.093 230.02C234.993 230.224 234.854 230.408 234.683 230.558C234.512 230.709 234.314 230.825 234.098 230.899C233.883 230.973 233.655 231.004 233.427 230.99L219.792 230.157C219.564 230.144 219.342 230.085 219.137 229.986C218.932 229.886 218.749 229.747 218.598 229.576C218.447 229.406 218.332 229.207 218.257 228.992C218.183 228.776 218.152 228.549 218.166 228.321L218.925 215.901L205.811 215.101C205.26 215.067 204.708 215.142 204.186 215.322C203.664 215.502 203.182 215.782 202.769 216.148C202.355 216.514 202.018 216.957 201.776 217.453C201.534 217.949 201.392 218.488 201.359 219.039L199.52 249.15C199.5 249.432 199.508 249.716 199.545 249.996C199.562 250.122 199.586 250.249 199.614 250.37C200.212 250.878 200.773 251.427 201.293 252.015C201.684 252.456 202.051 252.918 202.394 253.397L202.387 253.398ZM242.451 245.337L232.586 244.735C232.135 244.695 231.718 244.481 231.424 244.139C231.129 243.796 230.979 243.352 231.007 242.901C231.034 242.45 231.237 242.028 231.571 241.724C231.905 241.42 232.345 241.258 232.797 241.273L242.662 241.875C242.894 241.883 243.122 241.937 243.333 242.035C243.543 242.132 243.732 242.27 243.888 242.442C244.044 242.613 244.164 242.814 244.241 243.033C244.318 243.252 244.351 243.484 244.337 243.715C244.322 243.946 244.262 244.173 244.159 244.38C244.056 244.588 243.912 244.773 243.736 244.924C243.561 245.075 243.356 245.19 243.136 245.261C242.915 245.332 242.682 245.358 242.451 245.337ZM242.09 251.25L232.225 250.648C231.765 250.62 231.336 250.411 231.031 250.067C230.727 249.722 230.571 249.271 230.599 248.812C230.627 248.353 230.836 247.924 231.181 247.62C231.525 247.315 231.977 247.16 232.436 247.188L242.301 247.79C242.76 247.818 243.189 248.027 243.494 248.371C243.799 248.716 243.955 249.167 243.927 249.626C243.899 250.085 243.689 250.514 243.345 250.818C243 251.123 242.549 251.278 242.09 251.25ZM184.55 247.079L186.155 220.804L177.935 231.127L176.658 252.043C178.757 249.665 181.497 247.941 184.55 247.079ZM176.181 260.798C176.607 258.211 177.807 255.814 179.623 253.923C181.439 252.032 183.786 250.736 186.354 250.205C186.471 250.195 186.586 250.172 186.699 250.138C187.713 249.959 188.745 249.901 189.774 249.964C192.196 250.11 194.529 250.936 196.503 252.348C196.59 252.424 196.683 252.492 196.783 252.551C197.477 253.076 198.118 253.667 198.697 254.318C199.147 254.828 199.556 255.372 199.921 255.946C199.981 256.074 200.056 256.195 200.144 256.305C201.177 258.05 201.786 260.012 201.923 262.035C202.059 264.058 201.719 266.085 200.929 267.952C200.14 269.82 198.923 271.476 197.377 272.788C195.831 274.101 193.998 275.032 192.026 275.507C190.055 275.983 187.999 275.99 186.024 275.527C184.049 275.064 182.21 274.145 180.655 272.843C179.101 271.541 177.873 269.892 177.071 268.03C176.269 266.167 175.916 264.143 176.039 262.119C176.064 261.679 176.111 261.24 176.181 260.804L176.181 260.798ZM201.854 210.909L203.541 183.275C203.547 183.22 203.573 183.169 203.613 183.132C203.664 183.089 203.729 183.068 203.795 183.073L216.204 183.831L215.66 192.739C215.632 193.198 215.787 193.65 216.092 193.994C216.397 194.339 216.827 194.548 217.286 194.576L227.86 195.222C228.087 195.236 228.315 195.205 228.531 195.131C228.746 195.056 228.945 194.94 229.115 194.79C229.286 194.639 229.425 194.455 229.525 194.251C229.624 194.046 229.683 193.823 229.697 193.596L230.241 184.683L242.649 185.44C242.7 185.442 242.749 185.46 242.789 185.491L242.815 185.52C242.836 185.544 242.852 185.571 242.862 185.601C242.872 185.631 242.877 185.663 242.874 185.695L241.189 213.289C241.188 213.32 241.18 213.351 241.166 213.379C241.153 213.408 241.133 213.433 241.11 213.454C241.059 213.493 240.995 213.513 240.931 213.508L202.082 211.136C202.016 211.133 201.954 211.104 201.908 211.056C201.873 211.014 201.854 210.96 201.854 210.905L201.854 210.909ZM234.936 206.193C235.395 206.221 235.847 206.065 236.191 205.761C236.536 205.456 236.745 205.027 236.773 204.568C236.801 204.109 236.645 203.658 236.341 203.314C236.036 202.969 235.607 202.76 235.147 202.732L225.282 202.13C224.823 202.102 224.372 202.257 224.027 202.562C223.683 202.867 223.473 203.296 223.445 203.755C223.417 204.213 223.573 204.665 223.878 205.009C224.182 205.353 224.612 205.562 225.071 205.59L234.936 206.193ZM226.341 191.648L226.779 184.471L219.667 184.037L219.229 191.208L226.341 191.648Z" fill="#1EDB84"/>
<path fill-rule="evenodd" clip-rule="evenodd" d="M231.903 227.422L221.733 226.801L222.385 216.114L232.555 216.735L231.903 227.422ZM191.022 169.497L174.738 168.502L175.035 163.633L201.168 165.228L200.082 183.007C200.081 183.033 200.079 183.059 200.077 183.087L198.393 210.676C198.39 210.701 198.389 210.727 198.388 210.753L196.109 248.09C193.602 246.891 190.834 246.343 188.06 246.496L192.649 171.335C192.675 170.899 192.536 170.469 192.26 170.131C191.983 169.793 191.588 169.572 191.156 169.511L191.112 169.509L191.022 169.503L191.022 169.497ZM205.389 263.81C205.519 261.537 205.172 259.262 204.372 257.13L264.945 260.828L264.542 267.422L205.389 263.81ZM202.387 253.398C202.487 253.433 202.588 253.462 202.688 253.488C202.939 253.548 203.196 253.586 203.454 253.6L246.787 256.246C247.9 256.314 248.994 255.937 249.829 255.199C250.664 254.46 251.171 253.42 251.239 252.308L253.078 222.197C253.113 221.646 253.039 221.093 252.859 220.571C252.68 220.048 252.399 219.566 252.033 219.153C251.667 218.739 251.223 218.402 250.726 218.16C250.229 217.919 249.689 217.778 249.137 217.746L236.024 216.945L235.265 229.365C235.251 229.593 235.193 229.815 235.093 230.02C234.993 230.224 234.854 230.408 234.683 230.558C234.512 230.709 234.314 230.825 234.098 230.899C233.883 230.973 233.655 231.004 233.427 230.99L219.792 230.157C219.564 230.144 219.342 230.085 219.137 229.986C218.932 229.886 218.749 229.747 218.598 229.576C218.447 229.406 218.332 229.207 218.257 228.992C218.183 228.776 218.152 228.549 218.166 228.321L218.925 215.901L205.811 215.101C205.26 215.067 204.708 215.142 204.186 215.322C203.664 215.502 203.182 215.782 202.769 216.148C202.355 216.514 202.018 216.957 201.776 217.453C201.534 217.949 201.392 218.488 201.359 219.039L199.52 249.15C199.5 249.432 199.508 249.716 199.545 249.996C199.562 250.122 199.586 250.249 199.614 250.37C200.212 250.878 200.773 251.427 201.293 252.015C201.684 252.456 202.051 252.918 202.394 253.397L202.387 253.398ZM242.451 245.337L232.586 244.735C232.135 244.695 231.718 244.481 231.424 244.139C231.129 243.796 230.979 243.352 231.007 242.901C231.034 242.45 231.237 242.028 231.571 241.724C231.905 241.42 232.345 241.258 232.797 241.273L242.662 241.875C242.894 241.883 243.122 241.937 243.333 242.035C243.543 242.132 243.732 242.27 243.888 242.442C244.044 242.613 244.164 242.814 244.241 243.033C244.318 243.252 244.351 243.484 244.337 243.715C244.322 243.946 244.262 244.173 244.159 244.38C244.056 244.588 243.912 244.773 243.736 244.924C243.561 245.075 243.356 245.19 243.136 245.261C242.915 245.332 242.682 245.358 242.451 245.337ZM242.09 251.25L232.225 250.648C231.765 250.62 231.336 250.411 231.031 250.067C230.727 249.722 230.571 249.271 230.599 248.812C230.627 248.353 230.836 247.924 231.181 247.62C231.525 247.315 231.977 247.16 232.436 247.188L242.301 247.79C242.76 247.818 243.189 248.027 243.494 248.371C243.799 248.716 243.955 249.167 243.927 249.626C243.899 250.085 243.689 250.514 243.345 250.818C243 251.123 242.549 251.278 242.09 251.25ZM184.55 247.079L186.155 220.804L177.935 231.127L176.658 252.043C178.757 249.665 181.497 247.941 184.55 247.079ZM176.181 260.798C176.607 258.211 177.807 255.814 179.623 253.923C181.439 252.032 183.786 250.736 186.354 250.205C186.471 250.195 186.586 250.172 186.699 250.138C187.713 249.959 188.745 249.901 189.774 249.964C192.196 250.11 194.529 250.936 196.503 252.348C196.59 252.424 196.683 252.492 196.783 252.551C197.477 253.076 198.118 253.667 198.697 254.318C199.147 254.828 199.556 255.372 199.921 255.946C199.981 256.074 200.056 256.195 200.144 256.305C201.177 258.05 201.786 260.012 201.923 262.035C202.059 264.058 201.719 266.085 200.929 267.952C200.14 269.82 198.923 271.476 197.377 272.788C195.831 274.101 193.998 275.032 192.026 275.507C190.055 275.983 187.999 275.99 186.024 275.527C184.049 275.064 182.21 274.145 180.655 272.843C179.101 271.541 177.873 269.892 177.071 268.03C176.269 266.167 175.916 264.143 176.039 262.119C176.064 261.679 176.111 261.24 176.181 260.804L176.181 260.798ZM201.854 210.909L203.541 183.275C203.547 183.22 203.573 183.169 203.613 183.132C203.664 183.089 203.729 183.068 203.795 183.073L216.204 183.831L215.66 192.739C215.632 193.198 215.787 193.65 216.092 193.994C216.397 194.339 216.827 194.548 217.286 194.576L227.86 195.222C228.087 195.236 228.315 195.205 228.531 195.131C228.746 195.056 228.945 194.94 229.115 194.79C229.286 194.639 229.425 194.455 229.525 194.251C229.624 194.046 229.683 193.823 229.697 193.596L230.241 184.683L242.649 185.44C242.7 185.442 242.749 185.46 242.789 185.491L242.815 185.52C242.836 185.544 242.852 185.571 242.862 185.601C242.872 185.631 242.877 185.663 242.874 185.695L241.189 213.289C241.188 213.32 241.18 213.351 241.166 213.379C241.153 213.408 241.133 213.433 241.11 213.454C241.059 213.493 240.995 213.513 240.931 213.508L202.082 211.136C202.016 211.133 201.954 211.104 201.908 211.056C201.873 211.014 201.854 210.96 201.854 210.905L201.854 210.909ZM234.936 206.193C235.395 206.221 235.847 206.065 236.191 205.761C236.536 205.456 236.745 205.027 236.773 204.568C236.801 204.109 236.645 203.658 236.341 203.314C236.036 202.969 235.607 202.76 235.147 202.732L225.282 202.13C224.823 202.102 224.372 202.257 224.027 202.562C223.683 202.867 223.473 203.296 223.445 203.755C223.417 204.213 223.573 204.665 223.878 205.009C224.182 205.353 224.612 205.562 225.071 205.59L234.936 206.193ZM226.341 191.648L226.779 184.471L219.667 184.037L219.229 191.208L226.341 191.648Z" stroke="white" stroke-width="6.55459" mask="url(#path-4-outside-1_71_410)"/>
<path d="M239.195 156.285C238.242 154.65 234.878 151.182 229.05 150.397" stroke="#1EDB84" stroke-width="1.63865" stroke-linecap="round"/>
<path d="M243.25 155.519C242.646 153.582 239.964 149.155 234.066 146.939" stroke="#1EDB84" stroke-width="1.63865" stroke-linecap="round"/>
<path d="M237.48 158.905C236.237 157.303 232.176 154.094 225.874 154.082" stroke="#1EDB84" stroke-width="1.63865" stroke-linecap="round"/>
<rect x="232.56" y="227.472" width="47.9064" height="47.9064" rx="23.9532" transform="rotate(19.0862 232.56 227.472)" fill="#FF5356"/>
<rect x="232.56" y="227.472" width="47.9064" height="47.9064" rx="23.9532" transform="rotate(19.0862 232.56 227.472)" stroke="white" stroke-width="4.12986"/>
<path d="M243.692 262.87C243.768 262.147 243.551 261.425 243.092 260.865C242.632 260.304 241.968 259.955 241.248 259.892C241.107 259.872 241.004 259.749 241.007 259.607C241.121 256.316 240.139 254.937 238.266 254.577C238.024 254.529 237.777 254.607 237.604 254.783C237.431 254.959 237.358 255.21 237.407 255.451C238.468 260.67 236.73 267.724 242.591 269.839L244.92 270.645C246.423 271.165 248.073 271.064 249.507 270.361C250.941 269.659 252.04 268.414 252.564 266.9L255.88 257.315C256.469 255.614 253.806 254.701 253.223 256.483L251.603 261.166L251.604 261.167C251.555 261.309 251.4 261.385 251.259 261.336C251.118 261.287 251.043 261.132 251.092 260.99L254.287 251.756C254.876 250.054 252.208 249.131 251.622 250.921L249.1 258.211C249.036 258.327 248.899 258.381 248.774 258.338C248.65 258.295 248.575 258.168 248.595 258.037L251.971 248.279C252.56 246.578 249.889 245.662 249.306 247.444L245.957 257.124C245.907 257.267 245.754 257.342 245.613 257.293C245.471 257.244 245.397 257.091 245.446 256.947L247.996 249.579C248.585 247.878 245.919 246.972 245.333 248.762L241.647 259.417C243.269 259.753 244.373 261.267 244.203 262.924C244.154 263.031 244.043 263.093 243.928 263.083C243.811 263.07 243.717 262.984 243.692 262.87Z" fill="white"/>
</g>
<defs>
<filter id="filter0_d_71_410" x="-13.5" y="-13.5" width="468.066" height="468.063" filterUnits="userSpaceOnUse" color-interpolation-filters="sRGB">
<feFlood flood-opacity="0" result="BackgroundImageFix"/>
<feColorMatrix in="SourceAlpha" type="matrix" values="0 0 0 0 0 0 0 0 0 0 0 0 0 0 0 0 0 0 127 0" result="hardAlpha"/>
<feOffset dy="4"/>
<feGaussianBlur stdDeviation="41.75"/>
<feComposite in2="hardAlpha" operator="out"/>
<feColorMatrix type="matrix" values="0 0 0 0 0 0 0 0 0 0.15 0 0 0 0 0.0809524 0 0 0 0.14 0"/>
<feBlend mode="luminosity" in2="BackgroundImageFix" result="effect1_dropShadow_71_410"/>
<feBlend mode="normal" in="SourceGraphic" in2="effect1_dropShadow_71_410" result="shape"/>
</filter>
</defs>
</svg>
