<svg width="442" height="442" viewBox="0 0 442 442" fill="none" xmlns="http://www.w3.org/2000/svg">
<g filter="url(#filter0_d_1_170)">
<rect x="147.395" y="66" width="236.682" height="236.682" rx="49.2475" transform="rotate(19.0862 147.395 66)" fill="white"/>
<path d="M264.847 167.626L265.321 166.607L265.319 166.606L258.775 163.564L257.756 163.09L257.756 163.091L257.043 162.759L251.967 160.399L251.259 160.07L251.259 160.069L250.24 159.596L243.695 156.553C243.287 156.363 242.847 156.255 242.398 156.234C241.949 156.213 241.501 156.281 241.078 156.432C240.655 156.584 240.266 156.818 239.934 157.121C239.602 157.423 239.333 157.789 239.144 158.196L232.23 173.068C232.132 173.274 232.055 173.489 232 173.711L231.998 173.718L231.998 173.718C231.974 173.822 231.954 173.924 231.94 174.023L231.887 174.392L232.065 174.72C232.244 175.051 232.4 175.393 232.531 175.745L232.531 175.745C232.629 176.01 232.714 176.28 232.784 176.554L233.531 176.363L233.139 177.129C233.216 177.195 233.289 177.249 233.347 177.292L233.355 177.297L233.362 177.303C233.533 177.421 233.714 177.525 233.903 177.612L255.53 187.666C256.352 188.049 257.293 188.093 258.147 187.787L257.768 186.732L258.147 187.787C259.001 187.48 259.698 186.846 260.08 186.023L266.996 171.147L266.997 171.146L265.978 170.672C266.105 170.4 266.177 170.105 266.189 169.805C266.201 169.504 266.153 169.204 266.048 168.92C265.943 168.637 265.783 168.377 265.577 168.155C265.371 167.933 265.122 167.753 264.847 167.626ZM264.847 167.626L259.32 165.056M264.847 167.626L259.32 165.056M233.052 174.184C233.257 174.561 233.435 174.952 233.584 175.354C233.651 175.534 233.713 175.717 233.768 175.901L233.052 174.184ZM233.052 174.184C233.062 174.117 233.075 174.048 233.091 173.98L233.052 174.184ZM259.32 165.056L258.301 164.583L257.828 165.602L255.448 170.719C255.396 170.831 255.322 170.932 255.23 171.016C255.139 171.099 255.031 171.164 254.914 171.206C254.797 171.248 254.672 171.267 254.547 171.261C254.422 171.255 254.3 171.225 254.186 171.172L259.32 165.056ZM242.346 157.357C242.044 157.343 241.742 157.388 241.458 157.49L249.293 161.634L249.767 160.615L248.748 160.141L243.221 157.572C242.946 157.444 242.649 157.371 242.346 157.357Z" fill="#1EDB84" stroke="white" stroke-width="2.24752"/>
<path fill-rule="evenodd" clip-rule="evenodd" d="M231.899 227.422L221.729 226.801L222.381 216.114L232.551 216.735L231.899 227.422ZM191.018 169.497L174.734 168.502L175.031 163.633L201.164 165.228L200.078 183.007C200.077 183.033 200.075 183.059 200.074 183.087L198.389 210.676C198.386 210.701 198.385 210.727 198.384 210.753L196.105 248.09C193.598 246.891 190.83 246.343 188.056 246.496L192.645 171.335C192.671 170.899 192.532 170.469 192.256 170.131C191.979 169.793 191.585 169.572 191.152 169.511L191.108 169.509L191.018 169.503L191.018 169.497ZM205.385 263.81C205.515 261.537 205.168 259.262 204.368 257.13L264.941 260.828L264.539 267.422L205.385 263.81ZM202.383 253.398C202.484 253.433 202.584 253.462 202.684 253.488C202.936 253.548 203.192 253.586 203.45 253.6L246.783 256.246C247.896 256.314 248.99 255.937 249.825 255.199C250.66 254.46 251.167 253.42 251.235 252.308L253.074 222.197C253.109 221.646 253.035 221.093 252.856 220.571C252.676 220.048 252.396 219.566 252.029 219.153C251.663 218.739 251.219 218.402 250.722 218.16C250.225 217.919 249.685 217.778 249.133 217.746L236.02 216.945L235.261 229.365C235.248 229.593 235.189 229.815 235.089 230.02C234.989 230.224 234.85 230.408 234.679 230.558C234.509 230.709 234.31 230.825 234.094 230.899C233.879 230.973 233.651 231.004 233.424 230.99L219.788 230.157C219.561 230.144 219.338 230.085 219.133 229.986C218.929 229.886 218.745 229.747 218.594 229.576C218.443 229.406 218.328 229.207 218.254 228.992C218.179 228.776 218.149 228.549 218.163 228.321L218.921 215.901L205.807 215.101C205.256 215.067 204.704 215.142 204.182 215.322C203.66 215.502 203.178 215.782 202.765 216.148C202.351 216.514 202.014 216.957 201.772 217.453C201.53 217.949 201.388 218.488 201.355 219.039L199.516 249.15C199.496 249.432 199.504 249.716 199.541 249.996C199.558 250.122 199.582 250.249 199.61 250.37C200.208 250.878 200.769 251.427 201.289 252.015C201.68 252.456 202.047 252.918 202.39 253.397L202.383 253.398ZM242.447 245.337L232.582 244.735C232.131 244.695 231.714 244.481 231.42 244.139C231.125 243.796 230.975 243.352 231.003 242.901C231.03 242.45 231.233 242.028 231.567 241.724C231.901 241.42 232.341 241.258 232.793 241.273L242.658 241.875C242.89 241.883 243.118 241.937 243.329 242.035C243.539 242.132 243.728 242.27 243.884 242.442C244.04 242.613 244.16 242.814 244.237 243.033C244.314 243.252 244.347 243.484 244.333 243.715C244.319 243.946 244.258 244.173 244.155 244.38C244.052 244.588 243.908 244.773 243.733 244.924C243.557 245.075 243.352 245.19 243.132 245.261C242.911 245.332 242.678 245.358 242.447 245.337ZM242.086 251.25L232.221 250.648C231.762 250.62 231.332 250.411 231.028 250.067C230.723 249.722 230.567 249.271 230.595 248.812C230.623 248.353 230.833 247.924 231.177 247.62C231.521 247.315 231.973 247.16 232.432 247.188L242.297 247.79C242.756 247.818 243.186 248.027 243.49 248.371C243.795 248.716 243.951 249.167 243.923 249.626C243.895 250.085 243.685 250.514 243.341 250.818C242.997 251.123 242.545 251.278 242.086 251.25ZM184.547 247.079L186.151 220.804L177.931 231.127L176.654 252.043C178.753 249.665 181.493 247.941 184.547 247.079ZM176.177 260.798C176.603 258.211 177.803 255.814 179.619 253.923C181.435 252.032 183.782 250.736 186.35 250.205C186.467 250.195 186.582 250.172 186.695 250.138C187.709 249.959 188.741 249.901 189.77 249.964C192.193 250.11 194.525 250.936 196.499 252.348C196.586 252.424 196.679 252.492 196.779 252.551C197.473 253.076 198.114 253.667 198.693 254.318C199.143 254.828 199.552 255.372 199.917 255.946C199.977 256.074 200.052 256.195 200.14 256.305C201.173 258.05 201.782 260.012 201.919 262.035C202.055 264.058 201.715 266.085 200.925 267.952C200.136 269.82 198.919 271.476 197.373 272.788C195.827 274.101 193.994 275.032 192.022 275.507C190.051 275.983 187.995 275.99 186.02 275.527C184.045 275.064 182.206 274.145 180.652 272.843C179.097 271.541 177.869 269.892 177.067 268.03C176.265 266.167 175.912 264.143 176.035 262.119C176.06 261.679 176.108 261.24 176.177 260.804L176.177 260.798ZM201.85 210.909L203.537 183.275C203.543 183.22 203.569 183.169 203.609 183.132C203.66 183.089 203.725 183.068 203.792 183.073L216.2 183.831L215.656 192.739C215.628 193.198 215.783 193.65 216.088 193.994C216.393 194.339 216.823 194.548 217.282 194.576L227.856 195.222C228.083 195.236 228.311 195.205 228.527 195.131C228.742 195.056 228.941 194.94 229.111 194.79C229.282 194.639 229.421 194.455 229.521 194.251C229.621 194.046 229.679 193.823 229.693 193.596L230.237 184.683L242.645 185.44C242.696 185.442 242.745 185.46 242.785 185.491L242.811 185.52C242.832 185.544 242.848 185.571 242.858 185.601C242.869 185.631 242.873 185.663 242.87 185.695L241.186 213.289C241.184 213.32 241.176 213.351 241.162 213.379C241.149 213.408 241.129 213.433 241.106 213.454C241.055 213.493 240.992 213.513 240.927 213.508L202.078 211.136C202.012 211.133 201.95 211.104 201.904 211.056C201.869 211.014 201.85 210.96 201.85 210.905L201.85 210.909ZM234.932 206.193C235.391 206.221 235.843 206.065 236.187 205.761C236.532 205.456 236.741 205.027 236.769 204.568C236.797 204.109 236.641 203.658 236.337 203.314C236.032 202.969 235.603 202.76 235.144 202.732L225.278 202.13C224.819 202.102 224.368 202.257 224.023 202.562C223.679 202.867 223.469 203.296 223.441 203.755C223.413 204.213 223.569 204.665 223.874 205.009C224.179 205.353 224.608 205.562 225.067 205.59L234.932 206.193ZM226.337 191.648L226.775 184.471L219.663 184.037L219.225 191.208L226.337 191.648Z" fill="#1EDB84"/>
<mask id="path-4-outside-1_1_170" maskUnits="userSpaceOnUse" x="164.695" y="159.437" width="110.061" height="125.056" fill="black">
<rect fill="white" x="164.695" y="159.437" width="110.061" height="125.056"/>
<path fill-rule="evenodd" clip-rule="evenodd" d="M231.899 227.422L221.729 226.801L222.381 216.114L232.551 216.735L231.899 227.422ZM191.018 169.497L174.734 168.502L175.031 163.633L201.164 165.228L200.078 183.007C200.077 183.033 200.075 183.059 200.074 183.087L198.389 210.676C198.386 210.701 198.385 210.727 198.384 210.753L196.105 248.09C193.598 246.891 190.83 246.343 188.056 246.496L192.645 171.335C192.671 170.899 192.532 170.469 192.256 170.131C191.979 169.793 191.585 169.572 191.152 169.511L191.108 169.509L191.018 169.503L191.018 169.497ZM205.385 263.81C205.515 261.537 205.168 259.262 204.368 257.13L264.941 260.828L264.539 267.422L205.385 263.81ZM202.383 253.398C202.484 253.433 202.584 253.462 202.684 253.488C202.936 253.548 203.192 253.586 203.45 253.6L246.783 256.246C247.896 256.314 248.99 255.937 249.825 255.199C250.66 254.46 251.167 253.42 251.235 252.308L253.074 222.197C253.109 221.646 253.035 221.093 252.856 220.571C252.676 220.048 252.396 219.566 252.029 219.153C251.663 218.739 251.219 218.402 250.722 218.16C250.225 217.919 249.685 217.778 249.133 217.746L236.02 216.945L235.261 229.365C235.248 229.593 235.189 229.815 235.089 230.02C234.989 230.224 234.85 230.408 234.679 230.558C234.509 230.709 234.31 230.825 234.094 230.899C233.879 230.973 233.651 231.004 233.424 230.99L219.788 230.157C219.561 230.144 219.338 230.085 219.133 229.986C218.929 229.886 218.745 229.747 218.594 229.576C218.443 229.406 218.328 229.207 218.254 228.992C218.179 228.776 218.149 228.549 218.163 228.321L218.921 215.901L205.807 215.101C205.256 215.067 204.704 215.142 204.182 215.322C203.66 215.502 203.178 215.782 202.765 216.148C202.351 216.514 202.014 216.957 201.772 217.453C201.53 217.949 201.388 218.488 201.355 219.039L199.516 249.15C199.496 249.432 199.504 249.716 199.541 249.996C199.558 250.122 199.582 250.249 199.61 250.37C200.208 250.878 200.769 251.427 201.289 252.015C201.68 252.456 202.047 252.918 202.39 253.397L202.383 253.398ZM242.447 245.337L232.582 244.735C232.131 244.695 231.714 244.481 231.42 244.139C231.125 243.796 230.975 243.352 231.003 242.901C231.03 242.45 231.233 242.028 231.567 241.724C231.901 241.42 232.341 241.258 232.793 241.273L242.658 241.875C242.89 241.883 243.118 241.937 243.329 242.035C243.539 242.132 243.728 242.27 243.884 242.442C244.04 242.613 244.16 242.814 244.237 243.033C244.314 243.252 244.347 243.484 244.333 243.715C244.319 243.946 244.258 244.173 244.155 244.38C244.052 244.588 243.908 244.773 243.733 244.924C243.557 245.075 243.352 245.19 243.132 245.261C242.911 245.332 242.678 245.358 242.447 245.337ZM242.086 251.25L232.221 250.648C231.762 250.62 231.332 250.411 231.028 250.067C230.723 249.722 230.567 249.271 230.595 248.812C230.623 248.353 230.833 247.924 231.177 247.62C231.521 247.315 231.973 247.16 232.432 247.188L242.297 247.79C242.756 247.818 243.186 248.027 243.49 248.371C243.795 248.716 243.951 249.167 243.923 249.626C243.895 250.085 243.685 250.514 243.341 250.818C242.997 251.123 242.545 251.278 242.086 251.25ZM184.547 247.079L186.151 220.804L177.931 231.127L176.654 252.043C178.753 249.665 181.493 247.941 184.547 247.079ZM176.177 260.798C176.603 258.211 177.803 255.814 179.619 253.923C181.435 252.032 183.782 250.736 186.35 250.205C186.467 250.195 186.582 250.172 186.695 250.138C187.709 249.959 188.741 249.901 189.77 249.964C192.193 250.11 194.525 250.936 196.499 252.348C196.586 252.424 196.679 252.492 196.779 252.551C197.473 253.076 198.114 253.667 198.693 254.318C199.143 254.828 199.552 255.372 199.917 255.946C199.977 256.074 200.052 256.195 200.14 256.305C201.173 258.05 201.782 260.012 201.919 262.035C202.055 264.058 201.715 266.085 200.925 267.952C200.136 269.82 198.919 271.476 197.373 272.788C195.827 274.101 193.994 275.032 192.022 275.507C190.051 275.983 187.995 275.99 186.02 275.527C184.045 275.064 182.206 274.145 180.652 272.843C179.097 271.541 177.869 269.892 177.067 268.03C176.265 266.167 175.912 264.143 176.035 262.119C176.06 261.679 176.108 261.24 176.177 260.804L176.177 260.798ZM201.85 210.909L203.537 183.275C203.543 183.22 203.569 183.169 203.609 183.132C203.66 183.089 203.725 183.068 203.792 183.073L216.2 183.831L215.656 192.739C215.628 193.198 215.783 193.65 216.088 193.994C216.393 194.339 216.823 194.548 217.282 194.576L227.856 195.222C228.083 195.236 228.311 195.205 228.527 195.131C228.742 195.056 228.941 194.94 229.111 194.79C229.282 194.639 229.421 194.455 229.521 194.251C229.621 194.046 229.679 193.823 229.693 193.596L230.237 184.683L242.645 185.44C242.696 185.442 242.745 185.46 242.785 185.491L242.811 185.52C242.832 185.544 242.848 185.571 242.858 185.601C242.869 185.631 242.873 185.663 242.87 185.695L241.186 213.289C241.184 213.32 241.176 213.351 241.162 213.379C241.149 213.408 241.129 213.433 241.106 213.454C241.055 213.493 240.992 213.513 240.927 213.508L202.078 211.136C202.012 211.133 201.95 211.104 201.904 211.056C201.869 211.014 201.85 210.96 201.85 210.905L201.85 210.909ZM234.932 206.193C235.391 206.221 235.843 206.065 236.187 205.761C236.532 205.456 236.741 205.027 236.769 204.568C236.797 204.109 236.641 203.658 236.337 203.314C236.032 202.969 235.603 202.76 235.144 202.732L225.278 202.13C224.819 202.102 224.368 202.257 224.023 202.562C223.679 202.867 223.469 203.296 223.441 203.755C223.413 204.213 223.569 204.665 223.874 205.009C224.179 205.353 224.608 205.562 225.067 205.59L234.932 206.193ZM226.337 191.648L226.775 184.471L219.663 184.037L219.225 191.208L226.337 191.648Z"/>
</mask>
<path fill-rule="evenodd" clip-rule="evenodd" d="M231.899 227.422L221.729 226.801L222.381 216.114L232.551 216.735L231.899 227.422ZM191.018 169.497L174.734 168.502L175.031 163.633L201.164 165.228L200.078 183.007C200.077 183.033 200.075 183.059 200.074 183.087L198.389 210.676C198.386 210.701 198.385 210.727 198.384 210.753L196.105 248.09C193.598 246.891 190.83 246.343 188.056 246.496L192.645 171.335C192.671 170.899 192.532 170.469 192.256 170.131C191.979 169.793 191.585 169.572 191.152 169.511L191.108 169.509L191.018 169.503L191.018 169.497ZM205.385 263.81C205.515 261.537 205.168 259.262 204.368 257.13L264.941 260.828L264.539 267.422L205.385 263.81ZM202.383 253.398C202.484 253.433 202.584 253.462 202.684 253.488C202.936 253.548 203.192 253.586 203.45 253.6L246.783 256.246C247.896 256.314 248.99 255.937 249.825 255.199C250.66 254.46 251.167 253.42 251.235 252.308L253.074 222.197C253.109 221.646 253.035 221.093 252.856 220.571C252.676 220.048 252.396 219.566 252.029 219.153C251.663 218.739 251.219 218.402 250.722 218.16C250.225 217.919 249.685 217.778 249.133 217.746L236.02 216.945L235.261 229.365C235.248 229.593 235.189 229.815 235.089 230.02C234.989 230.224 234.85 230.408 234.679 230.558C234.509 230.709 234.31 230.825 234.094 230.899C233.879 230.973 233.651 231.004 233.424 230.99L219.788 230.157C219.561 230.144 219.338 230.085 219.133 229.986C218.929 229.886 218.745 229.747 218.594 229.576C218.443 229.406 218.328 229.207 218.254 228.992C218.179 228.776 218.149 228.549 218.163 228.321L218.921 215.901L205.807 215.101C205.256 215.067 204.704 215.142 204.182 215.322C203.66 215.502 203.178 215.782 202.765 216.148C202.351 216.514 202.014 216.957 201.772 217.453C201.53 217.949 201.388 218.488 201.355 219.039L199.516 249.15C199.496 249.432 199.504 249.716 199.541 249.996C199.558 250.122 199.582 250.249 199.61 250.37C200.208 250.878 200.769 251.427 201.289 252.015C201.68 252.456 202.047 252.918 202.39 253.397L202.383 253.398ZM242.447 245.337L232.582 244.735C232.131 244.695 231.714 244.481 231.42 244.139C231.125 243.796 230.975 243.352 231.003 242.901C231.03 242.45 231.233 242.028 231.567 241.724C231.901 241.42 232.341 241.258 232.793 241.273L242.658 241.875C242.89 241.883 243.118 241.937 243.329 242.035C243.539 242.132 243.728 242.27 243.884 242.442C244.04 242.613 244.16 242.814 244.237 243.033C244.314 243.252 244.347 243.484 244.333 243.715C244.319 243.946 244.258 244.173 244.155 244.38C244.052 244.588 243.908 244.773 243.733 244.924C243.557 245.075 243.352 245.19 243.132 245.261C242.911 245.332 242.678 245.358 242.447 245.337ZM242.086 251.25L232.221 250.648C231.762 250.62 231.332 250.411 231.028 250.067C230.723 249.722 230.567 249.271 230.595 248.812C230.623 248.353 230.833 247.924 231.177 247.62C231.521 247.315 231.973 247.16 232.432 247.188L242.297 247.79C242.756 247.818 243.186 248.027 243.49 248.371C243.795 248.716 243.951 249.167 243.923 249.626C243.895 250.085 243.685 250.514 243.341 250.818C242.997 251.123 242.545 251.278 242.086 251.25ZM184.547 247.079L186.151 220.804L177.931 231.127L176.654 252.043C178.753 249.665 181.493 247.941 184.547 247.079ZM176.177 260.798C176.603 258.211 177.803 255.814 179.619 253.923C181.435 252.032 183.782 250.736 186.35 250.205C186.467 250.195 186.582 250.172 186.695 250.138C187.709 249.959 188.741 249.901 189.77 249.964C192.193 250.11 194.525 250.936 196.499 252.348C196.586 252.424 196.679 252.492 196.779 252.551C197.473 253.076 198.114 253.667 198.693 254.318C199.143 254.828 199.552 255.372 199.917 255.946C199.977 256.074 200.052 256.195 200.14 256.305C201.173 258.05 201.782 260.012 201.919 262.035C202.055 264.058 201.715 266.085 200.925 267.952C200.136 269.82 198.919 271.476 197.373 272.788C195.827 274.101 193.994 275.032 192.022 275.507C190.051 275.983 187.995 275.99 186.02 275.527C184.045 275.064 182.206 274.145 180.652 272.843C179.097 271.541 177.869 269.892 177.067 268.03C176.265 266.167 175.912 264.143 176.035 262.119C176.06 261.679 176.108 261.24 176.177 260.804L176.177 260.798ZM201.85 210.909L203.537 183.275C203.543 183.22 203.569 183.169 203.609 183.132C203.66 183.089 203.725 183.068 203.792 183.073L216.2 183.831L215.656 192.739C215.628 193.198 215.783 193.65 216.088 193.994C216.393 194.339 216.823 194.548 217.282 194.576L227.856 195.222C228.083 195.236 228.311 195.205 228.527 195.131C228.742 195.056 228.941 194.94 229.111 194.79C229.282 194.639 229.421 194.455 229.521 194.251C229.621 194.046 229.679 193.823 229.693 193.596L230.237 184.683L242.645 185.44C242.696 185.442 242.745 185.46 242.785 185.491L242.811 185.52C242.832 185.544 242.848 185.571 242.858 185.601C242.869 185.631 242.873 185.663 242.87 185.695L241.186 213.289C241.184 213.32 241.176 213.351 241.162 213.379C241.149 213.408 241.129 213.433 241.106 213.454C241.055 213.493 240.992 213.513 240.927 213.508L202.078 211.136C202.012 211.133 201.95 211.104 201.904 211.056C201.869 211.014 201.85 210.96 201.85 210.905L201.85 210.909ZM234.932 206.193C235.391 206.221 235.843 206.065 236.187 205.761C236.532 205.456 236.741 205.027 236.769 204.568C236.797 204.109 236.641 203.658 236.337 203.314C236.032 202.969 235.603 202.76 235.144 202.732L225.278 202.13C224.819 202.102 224.368 202.257 224.023 202.562C223.679 202.867 223.469 203.296 223.441 203.755C223.413 204.213 223.569 204.665 223.874 205.009C224.179 205.353 224.608 205.562 225.067 205.59L234.932 206.193ZM226.337 191.648L226.775 184.471L219.663 184.037L219.225 191.208L226.337 191.648Z" fill="#1EDB84"/>
<path fill-rule="evenodd" clip-rule="evenodd" d="M231.899 227.422L221.729 226.801L222.381 216.114L232.551 216.735L231.899 227.422ZM191.018 169.497L174.734 168.502L175.031 163.633L201.164 165.228L200.078 183.007C200.077 183.033 200.075 183.059 200.074 183.087L198.389 210.676C198.386 210.701 198.385 210.727 198.384 210.753L196.105 248.09C193.598 246.891 190.83 246.343 188.056 246.496L192.645 171.335C192.671 170.899 192.532 170.469 192.256 170.131C191.979 169.793 191.585 169.572 191.152 169.511L191.108 169.509L191.018 169.503L191.018 169.497ZM205.385 263.81C205.515 261.537 205.168 259.262 204.368 257.13L264.941 260.828L264.539 267.422L205.385 263.81ZM202.383 253.398C202.484 253.433 202.584 253.462 202.684 253.488C202.936 253.548 203.192 253.586 203.45 253.6L246.783 256.246C247.896 256.314 248.99 255.937 249.825 255.199C250.66 254.46 251.167 253.42 251.235 252.308L253.074 222.197C253.109 221.646 253.035 221.093 252.856 220.571C252.676 220.048 252.396 219.566 252.029 219.153C251.663 218.739 251.219 218.402 250.722 218.16C250.225 217.919 249.685 217.778 249.133 217.746L236.02 216.945L235.261 229.365C235.248 229.593 235.189 229.815 235.089 230.02C234.989 230.224 234.85 230.408 234.679 230.558C234.509 230.709 234.31 230.825 234.094 230.899C233.879 230.973 233.651 231.004 233.424 230.99L219.788 230.157C219.561 230.144 219.338 230.085 219.133 229.986C218.929 229.886 218.745 229.747 218.594 229.576C218.443 229.406 218.328 229.207 218.254 228.992C218.179 228.776 218.149 228.549 218.163 228.321L218.921 215.901L205.807 215.101C205.256 215.067 204.704 215.142 204.182 215.322C203.66 215.502 203.178 215.782 202.765 216.148C202.351 216.514 202.014 216.957 201.772 217.453C201.53 217.949 201.388 218.488 201.355 219.039L199.516 249.15C199.496 249.432 199.504 249.716 199.541 249.996C199.558 250.122 199.582 250.249 199.61 250.37C200.208 250.878 200.769 251.427 201.289 252.015C201.68 252.456 202.047 252.918 202.39 253.397L202.383 253.398ZM242.447 245.337L232.582 244.735C232.131 244.695 231.714 244.481 231.42 244.139C231.125 243.796 230.975 243.352 231.003 242.901C231.03 242.45 231.233 242.028 231.567 241.724C231.901 241.42 232.341 241.258 232.793 241.273L242.658 241.875C242.89 241.883 243.118 241.937 243.329 242.035C243.539 242.132 243.728 242.27 243.884 242.442C244.04 242.613 244.16 242.814 244.237 243.033C244.314 243.252 244.347 243.484 244.333 243.715C244.319 243.946 244.258 244.173 244.155 244.38C244.052 244.588 243.908 244.773 243.733 244.924C243.557 245.075 243.352 245.19 243.132 245.261C242.911 245.332 242.678 245.358 242.447 245.337ZM242.086 251.25L232.221 250.648C231.762 250.62 231.332 250.411 231.028 250.067C230.723 249.722 230.567 249.271 230.595 248.812C230.623 248.353 230.833 247.924 231.177 247.62C231.521 247.315 231.973 247.16 232.432 247.188L242.297 247.79C242.756 247.818 243.186 248.027 243.49 248.371C243.795 248.716 243.951 249.167 243.923 249.626C243.895 250.085 243.685 250.514 243.341 250.818C242.997 251.123 242.545 251.278 242.086 251.25ZM184.547 247.079L186.151 220.804L177.931 231.127L176.654 252.043C178.753 249.665 181.493 247.941 184.547 247.079ZM176.177 260.798C176.603 258.211 177.803 255.814 179.619 253.923C181.435 252.032 183.782 250.736 186.35 250.205C186.467 250.195 186.582 250.172 186.695 250.138C187.709 249.959 188.741 249.901 189.77 249.964C192.193 250.11 194.525 250.936 196.499 252.348C196.586 252.424 196.679 252.492 196.779 252.551C197.473 253.076 198.114 253.667 198.693 254.318C199.143 254.828 199.552 255.372 199.917 255.946C199.977 256.074 200.052 256.195 200.14 256.305C201.173 258.05 201.782 260.012 201.919 262.035C202.055 264.058 201.715 266.085 200.925 267.952C200.136 269.82 198.919 271.476 197.373 272.788C195.827 274.101 193.994 275.032 192.022 275.507C190.051 275.983 187.995 275.99 186.02 275.527C184.045 275.064 182.206 274.145 180.652 272.843C179.097 271.541 177.869 269.892 177.067 268.03C176.265 266.167 175.912 264.143 176.035 262.119C176.06 261.679 176.108 261.24 176.177 260.804L176.177 260.798ZM201.85 210.909L203.537 183.275C203.543 183.22 203.569 183.169 203.609 183.132C203.66 183.089 203.725 183.068 203.792 183.073L216.2 183.831L215.656 192.739C215.628 193.198 215.783 193.65 216.088 193.994C216.393 194.339 216.823 194.548 217.282 194.576L227.856 195.222C228.083 195.236 228.311 195.205 228.527 195.131C228.742 195.056 228.941 194.94 229.111 194.79C229.282 194.639 229.421 194.455 229.521 194.251C229.621 194.046 229.679 193.823 229.693 193.596L230.237 184.683L242.645 185.44C242.696 185.442 242.745 185.46 242.785 185.491L242.811 185.52C242.832 185.544 242.848 185.571 242.858 185.601C242.869 185.631 242.873 185.663 242.87 185.695L241.186 213.289C241.184 213.32 241.176 213.351 241.162 213.379C241.149 213.408 241.129 213.433 241.106 213.454C241.055 213.493 240.992 213.513 240.927 213.508L202.078 211.136C202.012 211.133 201.95 211.104 201.904 211.056C201.869 211.014 201.85 210.96 201.85 210.905L201.85 210.909ZM234.932 206.193C235.391 206.221 235.843 206.065 236.187 205.761C236.532 205.456 236.741 205.027 236.769 204.568C236.797 204.109 236.641 203.658 236.337 203.314C236.032 202.969 235.603 202.76 235.144 202.732L225.278 202.13C224.819 202.102 224.368 202.257 224.023 202.562C223.679 202.867 223.469 203.296 223.441 203.755C223.413 204.213 223.569 204.665 223.874 205.009C224.179 205.353 224.608 205.562 225.067 205.59L234.932 206.193ZM226.337 191.648L226.775 184.471L219.663 184.037L219.225 191.208L226.337 191.648Z" stroke="white" stroke-width="6.55459" mask="url(#path-4-outside-1_1_170)"/>
<path d="M239.195 156.285C238.242 154.65 234.878 151.182 229.05 150.397" stroke="#1EDB84" stroke-width="1.63865" stroke-linecap="round"/>
<path d="M243.25 155.519C242.646 153.582 239.964 149.155 234.066 146.939" stroke="#1EDB84" stroke-width="1.63865" stroke-linecap="round"/>
<path d="M237.48 158.905C236.237 157.303 232.176 154.094 225.874 154.082" stroke="#1EDB84" stroke-width="1.63865" stroke-linecap="round"/>
</g>
<defs>
<filter id="filter0_d_1_170" x="-13.4983" y="-13.5" width="468.064" height="468.063" filterUnits="userSpaceOnUse" color-interpolation-filters="sRGB">
<feFlood flood-opacity="0" result="BackgroundImageFix"/>
<feColorMatrix in="SourceAlpha" type="matrix" values="0 0 0 0 0 0 0 0 0 0 0 0 0 0 0 0 0 0 127 0" result="hardAlpha"/>
<feOffset dy="4"/>
<feGaussianBlur stdDeviation="41.75"/>
<feComposite in2="hardAlpha" operator="out"/>
<feColorMatrix type="matrix" values="0 0 0 0 0 0 0 0 0 0.15 0 0 0 0 0.0809524 0 0 0 0.14 0"/>
<feBlend mode="luminosity" in2="BackgroundImageFix" result="effect1_dropShadow_1_170"/>
<feBlend mode="normal" in="SourceGraphic" in2="effect1_dropShadow_1_170" result="shape"/>
</filter>
</defs>
</svg>
