<svg width="422" height="422" viewBox="0 0 422 422" fill="none" xmlns="http://www.w3.org/2000/svg">
<g filter="url(#filter0_d_71_582)">
<rect x="116.852" y="72" width="233.313" height="233.313" rx="48.5465" transform="rotate(10.0839 116.852 72)" fill="white"/>
<path d="M185.714 149.688C181.705 148.975 177.577 149.884 174.238 152.215C170.899 154.546 168.622 158.107 167.909 162.116L154.468 237.698C153.755 241.707 154.664 245.836 156.995 249.175C159.325 252.514 162.887 254.79 166.896 255.503L242.478 268.944C246.487 269.657 250.615 268.748 253.954 266.418C257.293 264.087 259.57 260.525 260.283 256.516L273.724 180.934C274.437 176.925 273.528 172.797 271.197 169.458C268.867 166.119 265.305 163.843 261.296 163.13L185.714 149.688ZM184.701 243.075L169.585 240.387L172.273 225.27L187.389 227.958L184.701 243.075ZM190.077 212.842L174.961 210.154L177.649 195.037L192.766 197.726L190.077 212.842ZM195.454 182.609L180.338 179.921L183.026 164.805L198.142 167.493L195.454 182.609ZM214.934 248.451L199.817 245.763L202.506 230.647L217.622 233.335L214.934 248.451ZM220.31 218.219L205.194 215.53L207.882 200.414L222.998 203.102L220.31 218.219ZM245.166 253.828L230.05 251.14L232.738 236.023L247.855 238.711L245.166 253.828ZM250.543 223.595L235.427 220.907L238.115 205.79L253.231 208.479L250.543 223.595ZM210.57 185.298L213.259 170.181L258.608 178.246L255.919 193.362L210.57 185.298Z" fill="#2BDD8B"/>
<rect x="142.652" y="214.053" width="56.171" height="56.171" rx="28.0855" transform="rotate(10.0839 142.652 214.053)" fill="#2BDD8B"/>
<rect x="142.652" y="214.053" width="56.171" height="56.171" rx="28.0855" transform="rotate(10.0839 142.652 214.053)" stroke="white" stroke-width="7.22878"/>
<path d="M161.416 251.355L161.493 250.923C161.765 249.441 162.106 248.282 162.518 247.445C162.937 246.611 163.445 245.966 164.042 245.513C164.639 245.059 165.328 244.675 166.11 244.359C166.696 244.113 167.229 243.845 167.709 243.554C168.189 243.264 168.591 242.92 168.916 242.523C169.241 242.117 169.453 241.639 169.551 241.088C169.655 240.503 169.606 239.965 169.405 239.475C169.204 238.984 168.887 238.578 168.454 238.256C168.03 237.936 167.534 237.725 166.966 237.624C166.415 237.526 165.872 237.557 165.337 237.715C164.803 237.865 164.337 238.149 163.939 238.568C163.542 238.979 163.269 239.529 163.12 240.22L157.933 239.297C158.276 237.609 158.932 236.283 159.899 235.318C160.868 234.345 162.037 233.7 163.405 233.384C164.774 233.059 166.226 233.033 167.761 233.306C169.448 233.606 170.89 234.151 172.087 234.941C173.286 235.723 174.161 236.705 174.712 237.887C175.262 239.069 175.406 240.402 175.142 241.885C174.965 242.877 174.643 243.73 174.175 244.442C173.718 245.148 173.144 245.745 172.453 246.235C171.764 246.716 170.979 247.122 170.098 247.455C169.357 247.735 168.732 248.052 168.223 248.408C167.722 248.765 167.316 249.208 167.003 249.738C166.698 250.27 166.468 250.951 166.312 251.78L166.235 252.212L161.416 251.355ZM162.486 259.941C161.638 259.79 160.966 259.365 160.47 258.664C159.984 257.957 159.819 257.184 159.977 256.347C160.116 255.514 160.535 254.854 161.234 254.366C161.942 253.88 162.719 253.712 163.567 253.863C164.372 254.006 165.027 254.429 165.532 255.131C166.037 255.833 166.22 256.6 166.08 257.432C165.973 257.99 165.733 258.476 165.362 258.891C165.001 259.299 164.566 259.603 164.059 259.801C163.553 259.991 163.029 260.037 162.486 259.941Z" fill="white"/>
</g>
<defs>
<filter id="filter0_d_71_582" x="-7.5" y="-7.5" width="437.559" height="437.56" filterUnits="userSpaceOnUse" color-interpolation-filters="sRGB">
<feFlood flood-opacity="0" result="BackgroundImageFix"/>
<feColorMatrix in="SourceAlpha" type="matrix" values="0 0 0 0 0 0 0 0 0 0 0 0 0 0 0 0 0 0 127 0" result="hardAlpha"/>
<feOffset dy="4"/>
<feGaussianBlur stdDeviation="41.75"/>
<feComposite in2="hardAlpha" operator="out"/>
<feColorMatrix type="matrix" values="0 0 0 0 0 0 0 0 0 0.15 0 0 0 0 0.0809524 0 0 0 0.14 0"/>
<feBlend mode="luminosity" in2="BackgroundImageFix" result="effect1_dropShadow_71_582"/>
<feBlend mode="normal" in="SourceGraphic" in2="effect1_dropShadow_71_582" result="shape"/>
</filter>
</defs>
</svg>
