<svg width="413" height="413" viewBox="0 0 413 413" fill="none" xmlns="http://www.w3.org/2000/svg">
<g filter="url(#filter0_d_71_530)">
<rect x="74" y="124.631" width="217.128" height="217.128" rx="45.1789" transform="rotate(-14.5725 74 124.631)" fill="white"/>
<path d="M211.794 150.083L213.91 158.22C214.05 158.759 214.399 159.221 214.88 159.503C215.36 159.786 215.933 159.866 216.473 159.725C217.012 159.585 217.474 159.236 217.756 158.756C218.039 158.275 218.118 157.702 217.978 157.162L215.863 149.025C215.723 148.486 215.374 148.024 214.893 147.742C214.412 147.46 213.839 147.38 213.3 147.52C212.76 147.66 212.299 148.009 212.016 148.49C211.734 148.97 211.654 149.544 211.794 150.083Z" fill="#1EDB84"/>
<path d="M236.813 154.436C237.352 154.296 237.814 153.947 238.096 153.466C238.379 152.986 238.458 152.413 238.318 151.873L236.203 143.736C236.062 143.197 235.714 142.735 235.233 142.453C234.752 142.17 234.179 142.091 233.64 142.231C233.1 142.371 232.638 142.72 232.356 143.201C232.074 143.681 231.994 144.254 232.134 144.794L234.25 152.931C234.39 153.47 234.739 153.932 235.219 154.214C235.7 154.497 236.273 154.576 236.813 154.436Z" fill="#1EDB84"/>
<path d="M196.129 165.012C196.669 164.872 197.13 164.523 197.413 164.043C197.695 163.562 197.775 162.989 197.634 162.449L195.519 154.312C195.379 153.773 195.03 153.311 194.549 153.029C194.069 152.747 193.496 152.667 192.956 152.807C192.417 152.947 191.955 153.296 191.673 153.777C191.39 154.258 191.31 154.831 191.451 155.37L193.566 163.507C193.706 164.047 194.055 164.508 194.536 164.791C195.016 165.073 195.59 165.153 196.129 165.012Z" fill="#1EDB84"/>
<path d="M156.955 173.026L154.839 164.89C154.699 164.35 154.35 163.888 153.87 163.606C153.389 163.324 152.816 163.244 152.276 163.384C151.737 163.525 151.275 163.873 150.993 164.354C150.711 164.835 150.631 165.408 150.771 165.947L152.886 174.084C153.027 174.624 153.375 175.085 153.856 175.368C154.337 175.65 154.91 175.73 155.449 175.59C155.989 175.449 156.451 175.1 156.733 174.62C157.015 174.139 157.095 173.566 156.955 173.026Z" fill="#1EDB84"/>
<path d="M245.931 147.725L241.862 148.783L242.391 150.817C242.812 152.435 242.572 154.155 241.725 155.597C240.878 157.039 239.493 158.085 237.875 158.506C236.256 158.927 234.537 158.687 233.095 157.84C231.653 156.993 230.606 155.608 230.186 153.99L229.657 151.956L221.52 154.071L222.049 156.105C222.47 157.724 222.23 159.443 221.383 160.885C220.536 162.327 219.151 163.373 217.533 163.794C215.914 164.215 214.195 163.976 212.753 163.129C211.311 162.282 210.264 160.897 209.844 159.278L209.315 157.244L201.178 159.359L201.707 161.393C202.127 163.012 201.888 164.731 201.041 166.173C200.194 167.615 198.809 168.662 197.191 169.083C195.572 169.503 193.853 169.264 192.411 168.417C190.969 167.57 189.922 166.185 189.501 164.566L188.973 162.532L180.836 164.647L181.365 166.682C181.785 168.3 181.546 170.02 180.699 171.462C179.852 172.904 178.467 173.95 176.848 174.371C175.23 174.792 173.51 174.552 172.068 173.705C170.626 172.858 169.58 171.473 169.159 169.855L168.63 167.82L160.494 169.936L161.022 171.97C161.443 173.589 161.204 175.308 160.357 176.75C159.51 178.192 158.125 179.238 156.506 179.659C154.888 180.08 153.168 179.84 151.726 178.994C150.284 178.147 149.238 176.762 148.817 175.143L148.288 173.109L144.22 174.166C142.601 174.587 141.216 175.634 140.369 177.076C139.522 178.518 139.283 180.237 139.704 181.856L141.29 187.958L255.206 158.344L253.62 152.241C253.199 150.623 252.152 149.237 250.71 148.391C249.268 147.544 247.549 147.304 245.931 147.725Z" fill="#1EDB84"/>
<path d="M159.799 259.154C160.22 260.773 161.266 262.158 162.708 263.005C164.15 263.852 165.87 264.091 167.488 263.671L176.789 261.253L183.164 259.595C253.523 241.304 268.216 239.133 266.343 231.986C264.469 224.839 251.567 204.087 253.523 196.963C255.479 189.838 240.246 185.305 245.506 180.116C250.766 174.927 195.304 191.189 202.454 189.33C209.605 187.471 217.12 187.53 224.24 189.5C231.361 191.47 237.837 195.282 243.015 200.552C248.194 205.823 251.892 212.364 253.736 219.519C255.581 226.673 248.82 235.957 246.836 243.074L269.199 237.229C270.817 236.808 272.203 235.762 273.05 234.32C273.896 232.878 274.136 231.158 273.715 229.54L256.264 162.411L142.348 192.025L159.799 259.154Z" fill="#1EDB84"/>
<path d="M171.111 160.659L173.226 168.796C173.366 169.336 173.715 169.797 174.196 170.08C174.677 170.362 175.25 170.442 175.789 170.301C176.329 170.161 176.79 169.812 177.073 169.332C177.355 168.851 177.435 168.278 177.295 167.738L175.179 159.602C175.039 159.062 174.69 158.6 174.21 158.318C173.729 158.036 173.156 157.956 172.616 158.096C172.077 158.236 171.615 158.585 171.333 159.066C171.05 159.547 170.971 160.12 171.111 160.659Z" fill="#1EDB84"/>
<path d="M208.824 223.519L208.763 223.299C208.132 220.954 207.853 219.025 207.925 217.512C207.998 216 208.338 214.697 208.945 213.602C209.552 212.508 210.347 211.434 211.331 210.379C211.921 209.739 212.417 209.039 212.818 208.28C213.215 207.508 213.466 206.679 213.57 205.791C213.686 204.901 213.608 203.972 213.337 203.004C213.001 201.804 212.432 200.842 211.628 200.116C210.825 199.39 209.89 198.919 208.825 198.702C207.759 198.486 206.658 198.536 205.521 198.855C204.528 199.133 203.631 199.608 202.827 200.282C202.024 200.956 201.439 201.826 201.072 202.893C200.706 203.96 200.676 205.229 200.984 206.701L196.41 207.981C195.924 205.873 195.957 203.942 196.511 202.19C197.076 200.434 198.048 198.94 199.425 197.709C200.815 196.475 202.491 195.584 204.451 195.035C206.581 194.438 208.552 194.349 210.365 194.765C212.19 195.179 213.742 196.012 215.019 197.265C216.309 198.515 217.221 200.095 217.755 202.005C218.133 203.352 218.268 204.628 218.162 205.833C218.067 207.034 217.759 208.17 217.237 209.241C216.726 210.308 216.031 211.321 215.152 212.281C214.275 213.252 213.621 214.201 213.189 215.128C212.753 216.042 212.532 217.048 212.526 218.145C212.521 219.243 212.718 220.554 213.119 222.079L213.181 222.3L208.824 223.519ZM214.192 233.742C213.296 233.993 212.437 233.883 211.614 233.414C210.791 232.944 210.253 232.257 209.999 231.351C209.745 230.445 209.848 229.577 210.308 228.749C210.768 227.92 211.445 227.381 212.341 227.13C213.236 226.879 214.095 226.989 214.918 227.458C215.741 227.927 216.28 228.615 216.533 229.521C216.701 230.121 216.704 230.714 216.542 231.301C216.393 231.884 216.112 232.399 215.702 232.844C215.3 233.273 214.797 233.572 214.192 233.742Z" fill="white"/>
</g>
<defs>
<filter id="filter0_d_71_530" x="-9.5" y="-9.5" width="431.773" height="431.774" filterUnits="userSpaceOnUse" color-interpolation-filters="sRGB">
<feFlood flood-opacity="0" result="BackgroundImageFix"/>
<feColorMatrix in="SourceAlpha" type="matrix" values="0 0 0 0 0 0 0 0 0 0 0 0 0 0 0 0 0 0 127 0" result="hardAlpha"/>
<feOffset dy="4"/>
<feGaussianBlur stdDeviation="41.75"/>
<feComposite in2="hardAlpha" operator="out"/>
<feColorMatrix type="matrix" values="0 0 0 0 0 0 0 0 0 0.15 0 0 0 0 0.0809524 0 0 0 0.14 0"/>
<feBlend mode="luminosity" in2="BackgroundImageFix" result="effect1_dropShadow_71_530"/>
<feBlend mode="normal" in="SourceGraphic" in2="effect1_dropShadow_71_530" result="shape"/>
</filter>
</defs>
</svg>
