<svg width="438" height="438" viewBox="0 0 438 438" fill="none" xmlns="http://www.w3.org/2000/svg">
<g filter="url(#filter0_d_15_2)">
<rect x="73.8984" y="124.289" width="242.067" height="242.067" rx="50.3679" transform="rotate(-12.9657 73.8984 124.289)" fill="white"/>
</g>
<path d="M257.737 253.1C257.967 254.142 257.771 255.234 257.192 256.135C256.612 257.036 255.697 257.673 254.647 257.905L207.129 268.427C206.078 268.66 204.98 268.469 204.074 267.897C203.168 267.325 202.53 266.418 202.299 265.376C202.068 264.334 202.264 263.243 202.844 262.342C203.423 261.44 204.339 260.804 205.389 260.571L213.309 258.817L212.439 254.889L244.118 247.874L244.987 251.803L252.907 250.049C253.957 249.816 255.056 250.007 255.962 250.579C256.868 251.152 257.506 252.058 257.737 253.1ZM268.059 168.399L279.367 219.465C280.049 222.59 279.457 225.86 277.72 228.561C275.983 231.262 273.243 233.174 270.097 233.88L182.98 253.171C179.83 253.858 176.539 253.282 173.824 251.566C171.109 249.851 169.192 247.137 168.491 244.017L157.184 192.951C156.502 189.826 157.094 186.556 158.831 183.855C160.567 181.154 163.308 179.242 166.454 178.536L253.57 159.245C256.72 158.558 260.012 159.134 262.727 160.849C265.441 162.565 267.358 165.279 268.059 168.399ZM236.095 202.262C235.864 201.22 235.225 200.314 234.32 199.741C233.414 199.169 232.315 198.978 231.265 199.211L221.365 201.403L219.191 191.583C218.96 190.541 218.322 189.634 217.416 189.062C216.51 188.489 215.411 188.299 214.361 188.531C213.311 188.764 212.395 189.401 211.816 190.302C211.236 191.203 211.04 192.294 211.271 193.336L213.446 203.157L203.546 205.349C202.496 205.581 201.58 206.218 201.001 207.119C200.421 208.02 200.225 209.112 200.456 210.154C200.687 211.195 201.325 212.102 202.231 212.674C203.137 213.247 204.235 213.438 205.286 213.205L215.185 211.013L217.36 220.833C217.59 221.875 218.229 222.782 219.135 223.354C220.04 223.926 221.139 224.117 222.189 223.885C223.24 223.652 224.155 223.015 224.735 222.114C225.314 221.213 225.51 220.121 225.279 219.08L223.105 209.259L233.005 207.067C234.055 206.835 234.97 206.198 235.55 205.297C236.129 204.396 236.325 203.304 236.095 202.262Z" fill="#2BDD8B"/>
<defs>
<filter id="filter0_d_15_2" x="-9.60156" y="-9.52344" width="457.207" height="457.208" filterUnits="userSpaceOnUse" color-interpolation-filters="sRGB">
<feFlood flood-opacity="0" result="BackgroundImageFix"/>
<feColorMatrix in="SourceAlpha" type="matrix" values="0 0 0 0 0 0 0 0 0 0 0 0 0 0 0 0 0 0 127 0" result="hardAlpha"/>
<feOffset dy="4"/>
<feGaussianBlur stdDeviation="41.75"/>
<feComposite in2="hardAlpha" operator="out"/>
<feColorMatrix type="matrix" values="0 0 0 0 0 0 0 0 0 0.15 0 0 0 0 0.0809524 0 0 0 0.14 0"/>
<feBlend mode="luminosity" in2="BackgroundImageFix" result="effect1_dropShadow_15_2"/>
<feBlend mode="normal" in="SourceGraphic" in2="effect1_dropShadow_15_2" result="shape"/>
</filter>
</defs>
</svg>
