<svg width="463" height="463" viewBox="0 0 463 463" fill="none" xmlns="http://www.w3.org/2000/svg">
<g filter="url(#filter0_d_71_396)">
<rect x="116.68" y="71" width="273.712" height="273.712" rx="56.9525" transform="rotate(8.75878 116.68 71)" fill="white"/>
<path d="M251.306 228.595L290.162 262.443L298.725 206.863L251.306 228.595Z" fill="#1EDB84"/>
<path d="M171.031 187.189L162.468 242.769L209.711 222.187L171.031 187.189Z" fill="#1EDB84"/>
<path d="M299.945 197.431C299.935 193.515 297.232 190.06 293.25 189.446L181.515 172.231C177.533 171.617 173.915 174.099 172.727 177.83L229.879 229.539L299.945 197.431Z" fill="#1EDB84"/>
<path d="M230.808 237.98C230.07 238.315 229.279 238.414 228.513 238.296C227.747 238.178 227.022 237.846 226.419 237.303L216.273 228.117L161.285 252.09C161.315 255.976 164.006 259.405 167.973 260.016L279.707 277.232C283.674 277.843 287.272 275.382 288.471 271.686L243.248 232.281L230.808 237.98Z" fill="#1EDB84"/>
<rect x="256.02" y="240.84" width="40.0809" height="40.0809" rx="20.0405" transform="rotate(8.75878 256.02 240.84)" fill="#1EDB84"/>
<rect x="256.02" y="240.84" width="40.0809" height="40.0809" rx="20.0405" transform="rotate(8.75878 256.02 240.84)" stroke="white" stroke-width="5.15811"/>
<path d="M277.119 254.191L274.605 267.46L270.343 266.794L271.885 253.373L277.119 254.191ZM271.506 273.497C270.783 273.384 270.202 273.031 269.763 272.438C269.33 271.84 269.174 271.172 269.292 270.434C269.395 269.713 269.741 269.136 270.33 268.704C270.925 268.273 271.584 268.114 272.307 268.227C272.993 268.334 273.558 268.684 274.004 269.278C274.456 269.872 274.63 270.53 274.527 271.252C274.446 271.744 274.25 272.172 273.939 272.538C273.636 272.898 273.269 273.167 272.84 273.346C272.412 273.518 271.967 273.569 271.506 273.497Z" fill="white"/>
</g>
<defs>
<filter id="filter0_d_71_396" x="-8.5" y="-8.5" width="479.199" height="479.199" filterUnits="userSpaceOnUse" color-interpolation-filters="sRGB">
<feFlood flood-opacity="0" result="BackgroundImageFix"/>
<feColorMatrix in="SourceAlpha" type="matrix" values="0 0 0 0 0 0 0 0 0 0 0 0 0 0 0 0 0 0 127 0" result="hardAlpha"/>
<feOffset dy="4"/>
<feGaussianBlur stdDeviation="41.75"/>
<feComposite in2="hardAlpha" operator="out"/>
<feColorMatrix type="matrix" values="0 0 0 0 0 0 0 0 0 0.15 0 0 0 0 0.0809524 0 0 0 0.14 0"/>
<feBlend mode="luminosity" in2="BackgroundImageFix" result="effect1_dropShadow_71_396"/>
<feBlend mode="normal" in="SourceGraphic" in2="effect1_dropShadow_71_396" result="shape"/>
</filter>
</defs>
</svg>
