<svg width="501" height="501" viewBox="0 0 501 501" fill="none" xmlns="http://www.w3.org/2000/svg">
<g filter="url(#filter0_d_71_543)">
<rect x="202.602" y="59" width="273.712" height="273.712" rx="56.9525" transform="rotate(30.6664 202.602 59)" fill="white"/>
<path fill-rule="evenodd" clip-rule="evenodd" d="M244.265 175.42C237.944 171.672 229.681 173.838 225.931 180.162L182.413 253.554C178.662 259.879 180.705 268.202 187.026 271.95L256.133 312.928C262.485 316.695 270.805 314.516 274.555 308.192L318.074 234.8C321.824 228.475 319.724 220.164 313.372 216.398L244.265 175.42Z" fill="#1EDB84"/>
<rect x="244.828" y="222.353" width="28.7087" height="9.13458" rx="2.1749" transform="rotate(30.6664 244.828 222.353)" fill="white"/>
<rect x="238.395" y="233.202" width="28.7087" height="9.13458" rx="2.1749" transform="rotate(30.6664 238.395 233.202)" fill="white"/>
<rect x="231.961" y="244.053" width="28.7087" height="9.13458" rx="2.1749" transform="rotate(30.6664 231.961 244.053)" fill="white"/>
<rect x="245.34" y="287.3" width="28.2737" height="9.13458" rx="2.1749" transform="rotate(30.6664 245.34 287.3)" fill="white"/>
<rect width="25.3752" height="21.8213" transform="matrix(0.712694 0.701476 -0.717473 0.696586 238.363 159.32)" fill="white"/>
<path d="M241.533 191.986L241.531 191.986C238.504 191.887 235.543 190.613 233.319 188.424L224.398 179.644L257.984 180.742L249.48 188.998C247.412 191.007 244.56 192.09 241.533 191.986Z" fill="#1EDB84" stroke="white" stroke-width="2.1749"/>
<g clip-path="url(#clip0_71_543)">
<rect x="255.148" y="278.268" width="44.368" height="44.368" rx="22.184" transform="rotate(30.6664 255.148 278.268)" fill="#1EDB84"/>
<path d="M247.081 315.528C252.849 319.362 258.799 322.891 264.931 326.112C267.861 327.613 271.854 325.639 271.93 322.421C272.117 315.639 272.033 308.261 272.146 300.987C272.201 297.485 268.711 295.416 265.664 297.144C259.337 300.733 252.823 304.198 246.961 307.615C244.175 309.226 244.358 313.677 247.081 315.528ZM263.873 303.065C264.522 301.971 265.928 301.606 267.014 302.25C268.1 302.894 268.455 304.303 267.806 305.397L264.323 311.271C263.674 312.365 262.268 312.73 261.182 312.086C260.096 311.442 259.741 310.033 260.39 308.939L263.873 303.065ZM257.677 313.59C258.023 313.185 258.658 313.021 259.155 313.207C259.499 313.339 259.843 313.51 260.211 313.727C260.578 313.945 260.893 314.168 261.175 314.406C261.575 314.75 261.735 315.386 261.545 315.886C261.412 316.231 261.239 316.578 261.02 316.949C260.801 317.319 260.577 317.637 260.338 317.921C259.992 318.325 259.357 318.49 258.86 318.303C258.517 318.171 258.172 318 257.804 317.783C257.437 317.565 257.122 317.343 256.84 317.104C256.439 316.76 256.28 316.124 256.47 315.624C256.604 315.278 256.776 314.932 256.995 314.561C257.214 314.191 257.438 313.874 257.677 313.59Z" fill="white"/>
<path d="M271.824 322.418L271.824 322.419C271.787 323.981 270.8 325.247 269.452 325.942C268.104 326.636 266.41 326.75 264.98 326.017C258.851 322.798 252.905 319.272 247.14 315.439C245.811 314.536 245.098 312.994 245.061 311.479C245.024 309.963 245.662 308.489 247.014 307.708L247.015 307.707C250.41 305.728 254.021 303.734 257.69 301.708C260.356 300.237 263.052 298.748 265.717 297.236C268.692 295.549 272.093 297.565 272.04 300.986C271.992 304.048 271.979 307.127 271.967 310.171C271.949 314.363 271.932 318.489 271.824 322.418ZM257.596 313.521L257.596 313.521C257.353 313.81 257.125 314.133 256.903 314.507L256.903 314.507C256.682 314.882 256.507 315.233 256.37 315.586L256.37 315.586C256.164 316.127 256.336 316.811 256.771 317.185L256.772 317.186C257.058 317.428 257.378 317.654 257.749 317.874L257.75 317.874C258.122 318.094 258.472 318.268 258.821 318.402L258.822 318.403C259.362 318.605 260.043 318.428 260.419 317.99L260.419 317.989C260.662 317.7 260.89 317.378 261.111 317.003L261.112 317.003C261.333 316.628 261.508 316.276 261.645 315.925L261.645 315.924C261.851 315.383 261.679 314.699 261.244 314.325L261.243 314.325C260.957 314.082 260.637 313.856 260.265 313.636L260.265 313.636C259.893 313.416 259.544 313.243 259.194 313.108L259.193 313.107C258.653 312.905 257.972 313.082 257.596 313.521ZM267.069 302.158C265.931 301.484 264.46 301.866 263.782 303.01L260.298 308.885C259.62 310.029 259.99 311.503 261.127 312.178C262.265 312.852 263.736 312.469 264.414 311.325L267.898 305.451C268.576 304.307 268.206 302.833 267.069 302.158Z" stroke="white" stroke-opacity="0.7" stroke-width="0.212607"/>
</g>
<rect x="254.001" y="273.778" width="50.9211" height="50.9211" rx="25.4606" transform="rotate(30.6664 254.001 273.778)" stroke="white" stroke-width="6.55316"/>
</g>
<defs>
<filter id="filter0_d_71_543" x="-20.5039" y="-20.5" width="542.039" height="542.037" filterUnits="userSpaceOnUse" color-interpolation-filters="sRGB">
<feFlood flood-opacity="0" result="BackgroundImageFix"/>
<feColorMatrix in="SourceAlpha" type="matrix" values="0 0 0 0 0 0 0 0 0 0 0 0 0 0 0 0 0 0 127 0" result="hardAlpha"/>
<feOffset dy="4"/>
<feGaussianBlur stdDeviation="41.75"/>
<feComposite in2="hardAlpha" operator="out"/>
<feColorMatrix type="matrix" values="0 0 0 0 0 0 0 0 0 0.15 0 0 0 0 0.0809524 0 0 0 0.14 0"/>
<feBlend mode="luminosity" in2="BackgroundImageFix" result="effect1_dropShadow_71_543"/>
<feBlend mode="normal" in="SourceGraphic" in2="effect1_dropShadow_71_543" result="shape"/>
</filter>
<clipPath id="clip0_71_543">
<rect x="255.148" y="278.268" width="44.368" height="44.368" rx="22.184" transform="rotate(30.6664 255.148 278.268)" fill="white"/>
</clipPath>
</defs>
</svg>
